<svg xmlns="http://www.w3.org/2000/svg" id="Delivery_Check_List" width="50" height="50" viewBox="0 0 50 50">
    <defs>
        <style>
            .cls-1{fill:none;stroke:#3f53d9;stroke-linecap:round;stroke-linejoin:round;stroke-width:2px}
        </style>
    </defs>
    <g id="Group_14003" transform="translate(8.12 3.165)">
        <path id="Path_20432" d="M13 18h6.33" class="cls-1" transform="translate(7.045 16.271)"/>
        <path id="Path_29015" d="M13 18h6.33" class="cls-1" transform="translate(-5.615 16.271)"/>
        <path id="Path_20433" d="M13 10h6.33" class="cls-1" transform="translate(7.045 7.679)"/>
        <path id="Path_29013" d="M13 10h6.33" class="cls-1" transform="translate(-5.615 7.679)"/>
        <path id="Path_20435" d="M13 14h6.33" class="cls-1" transform="translate(7.045 11.991)"/>
        <path id="Path_29014" d="M13 14h6.33" class="cls-1" transform="translate(-5.615 11.991)"/>
        <path id="Path_20436" fill="none" stroke="#050038" stroke-linecap="round" stroke-linejoin="round" stroke-width="2px" d="M29.32 4h8.44v37.34H8.22c-.856 0-4.22-.248-4.22-.248V4h8.44" transform="translate(-4 1.275)"/>
        <path id="Path_29337" fill="#3f53d9" d="M8 6.747l3.086-3.857A2.375 2.375 0 0 1 12.94 2h9.113a2.375 2.375 0 0 1 1.854.89l3.083 3.857v4.747H8V6.747z" transform="translate(-0.615 -2)"/>
    </g>
    <path id="Path_20437" fill="none" d="M0 0h50v50H0z"/>
</svg>
