<svg xmlns="http://www.w3.org/2000/svg" id="Group_User_Add" width="24" height="24" viewBox="0 0 24 24">
    <defs>
        <style>
            .cls-2{fill:none;stroke:#0c0b31;stroke-linecap:round;stroke-linejoin:round;stroke-width:1.5px}
        </style>
    </defs>
    <path id="Path_12075" fill="none" d="M0 0h24v24H0z"/>
    <path id="Path_12076" d="M20.286 3.714a2.438 2.438 0 1 1-3.448 0 2.438 2.438 0 0 1 3.448 0" class="cls-2"/>
    <path id="Path_12077" d="M20.915 10.2a8.238 8.238 0 0 0-.923-2.8" class="cls-2"/>
    <path id="Path_12078" d="M16.6 4.008a8.238 8.238 0 0 0-2.8-.923" class="cls-2"/>
    <path id="Path_12079" d="M7.162 16.838a2.438 2.438 0 1 1-3.448 0 2.438 2.438 0 0 1 3.448 0" class="cls-2"/>
    <path id="Path_12080" d="M3.085 13.8a8.238 8.238 0 0 0 .923 2.8" class="cls-2"/>
    <path id="Path_12081" d="M10.2 20.915a8.238 8.238 0 0 1-2.8-.923" class="cls-2"/>
    <path id="Path_12082" d="M7.162 3.714a2.438 2.438 0 1 1-3.448 0 2.438 2.438 0 0 1 3.448 0" class="cls-2"/>
    <path id="Path_12083" d="M7.4 4.008a8.24 8.24 0 0 1 2.8-.924" class="cls-2"/>
    <path id="Path_12084" d="M4.008 7.4a8.238 8.238 0 0 0-.923 2.8" class="cls-2"/>
    <path id="Path_12085" d="M20.286 16.838a2.438 2.438 0 1 1-3.448 0 2.438 2.438 0 0 1 3.448 0" class="cls-2"/>
    <path id="Path_12086" d="M9 12h6" class="cls-2"/>
    <path id="Path_12087" d="M12 15V9" class="cls-2"/>
    <path id="Path_12088" d="M19.992 16.6a8.238 8.238 0 0 0 .923-2.8" class="cls-2"/>
    <path id="Path_12089" d="M16.6 19.992a8.238 8.238 0 0 1-2.8.923" class="cls-2"/>
</svg>
