<svg xmlns="http://www.w3.org/2000/svg" id="Alarm_Clock_Time.1" width="24" height="24" viewBox="0 0 24 24">

    <path fill="none" d="M0 0h24v24H0z"/>
    <path d="M12 21.88a8.91 8.91 0 0 1-8.2-5.48 8.86 8.86 0 1 1 8.2 5.5zm-6.56-6.11a7.122 7.122 0 1 0 3.83-9.35 7.14 7.14 0 0 0-3.85 9.31zm3.5-10.16z"
          fill="currentColor"/>
    <path d="M3.45 6.69a.86.86 0 0 1-.67-.32.87.87 0 0 1 .11-1.23l3-2.52A.886.886 0 0 1 7 4L4 6.48a.85.85 0 0 1-.55.21z"
          fill="currentColor"/>
    <path d="M20.56 6.69a.84.84 0 0 1-.56-.2L17 4a.873.873 0 0 1 1.12-1.34l3 2.52a.87.87 0 0 1 .11 1.23.85.85 0 0 1-.67.28z"
          fill="currentColor"/>
    <path d="M15 16.42a1 1 0 0 1-.46-.12l-3.25-2a.86.86 0 0 1-.41-.74V9.43a.88.88 0 0 1 1.75 0v3.65l2.83 1.72a.89.89 0 0 1 .29 1.2.91.91 0 0 1-.75.42z"
          fill="currentColor"/>
</svg>
