<svg id="Shapes_Objects" data-name="Shapes, Objects" xmlns="http://www.w3.org/2000/svg" width="24" height="24">
    <defs>
        <style>
            .cls-2{fill:none;stroke:#0c0b31;stroke-linecap:round;stroke-linejoin:round;stroke-width:1.5px}
        </style>
    </defs>
    <path id="Path_6692" data-name="Path 6692" d="M0 0h24v24H0z" transform="rotate(180 12 12)" style="fill:none"/>
    <path id="Path_6693" data-name="Path 6693" class="cls-2" d="M17.633 14.39h0a3.25 3.25 0 0 0-3.25 3.25h0a3.25 3.25 0 0 0 3.25 3.25h0a3.25 3.25 0 0 0 3.25-3.25h0a3.25 3.25 0 0 0-3.25-3.25z"/>
    <path id="Path_6694" data-name="Path 6694" class="cls-2" d="m16.631 3.616-2.484 3.975a1.182 1.182 0 0 0 1 1.808h4.969a1.182 1.182 0 0 0 1-1.808l-2.48-3.975a1.182 1.182 0 0 0-2.005 0z"/>
    <path id="Path_6695" data-name="Path 6695" class="cls-2" d="M6.362 20.888h0a3.25 3.25 0 0 1-3.25-3.25h0a3.25 3.25 0 0 1 3.25-3.25h0a3.25 3.25 0 0 1 3.25 3.25h0a3.25 3.25 0 0 1-3.25 3.25z"/>
    <path id="Path_6696" data-name="Path 6696" class="cls-2" d="M6.432 3.112h0a3.25 3.25 0 0 0-3.25 3.25h0a3.25 3.25 0 0 0 3.25 3.25h0a3.25 3.25 0 0 0 3.25-3.25h0a3.25 3.25 0 0 0-3.25-3.25z"/>
</svg>
