<svg xmlns="http://www.w3.org/2000/svg" id="Shapes_Objects" width="24" height="24" viewBox="0 0 24 24">
    <defs>
        <style>
            .cls-2{fill:none;stroke:#657686;stroke-linecap:round;stroke-linejoin:round;stroke-width:1.5px}
        </style>
    </defs>
    <path id="Path_6692" fill="none" d="M0 0h24v24H0z" transform="rotate(180 12 12)"/>
    <path id="Path_6693" d="M17.633 14.39a3.25 3.25 0 0 0-3.25 3.25 3.25 3.25 0 0 0 3.25 3.25 3.25 3.25 0 0 0 3.25-3.25 3.25 3.25 0 0 0-3.25-3.25z" class="cls-2"/>
    <path id="Path_6694" d="M16.631 3.616l-2.484 3.975a1.182 1.182 0 0 0 1 1.808h4.969a1.182 1.182 0 0 0 1-1.808l-2.48-3.975a1.182 1.182 0 0 0-2.005 0z" class="cls-2"/>
    <path id="Path_6695" d="M6.362 20.888a3.25 3.25 0 0 1-3.25-3.25 3.25 3.25 0 0 1 3.25-3.25 3.25 3.25 0 0 1 3.25 3.25 3.25 3.25 0 0 1-3.25 3.25z" class="cls-2"/>
    <path id="Path_6696" d="M6.432 3.112a3.25 3.25 0 0 0-3.25 3.25 3.25 3.25 0 0 0 3.25 3.25 3.25 3.25 0 0 0 3.25-3.25 3.25 3.25 0 0 0-3.25-3.25z" class="cls-2"/>
</svg>
