<svg xmlns="http://www.w3.org/2000/svg" id="Delivery_Check_List" width="35" height="35" viewBox="0 0 35 35">
    <defs>
        <style>
            .cls-1,.cls-3{fill:none;stroke:#0c0b31;stroke-linecap:round;stroke-linejoin:round}.cls-1{stroke-width:2.25px}.cls-3{stroke-width:2px}
        </style>
    </defs>
    <g id="Group_14003" transform="translate(5.793 2.927)">
        <path id="Path_20430" d="M8 4.927l1.9-2.378A1.464 1.464 0 0 1 11.045 2h5.618a1.464 1.464 0 0 1 1.143.549l1.9 2.378V6.39a1.464 1.464 0 0 1-1.463 1.463h-8.78A1.464 1.464 0 0 1 8 6.39V4.927z" class="cls-1" transform="translate(-2.146 -2)"/>
        <path id="Path_20436" d="M21.561 4h2.927a2.919 2.919 0 0 1 2.927 2.913v20.393a2.919 2.919 0 0 1-2.927 2.913H6.927A2.919 2.919 0 0 1 4 27.306V6.913A2.919 2.919 0 0 1 6.927 4h2.927" class="cls-1" transform="translate(-4 -1.073)"/>
    </g>
    <path id="Path_20437" fill="none" d="M0 0h35v35H0z"/>
    <path id="Path_29016" d="M8.612 5.111L5.869 7.854 4.222 6.209" class="cls-3" transform="translate(6.71 8.83)"/>
    <path id="Path_29017" d="M4.2 6.39A2.2 2.2 0 0 1 2 4.2 2.2 2.2 0 0 1 4.2 2a2.2 2.2 0 0 1 2.2 2.2 2.2 2.2 0 0 1-2.2 2.19z" class="cls-3" transform="translate(17.678 11.118)"/>
    <path id="Path_29018" d="M4.2 6.39A2.2 2.2 0 0 1 2 4.2 2.2 2.2 0 0 1 4.2 2a2.2 2.2 0 0 1 2.2 2.2 2.2 2.2 0 0 1-2.2 2.19z" class="cls-3" transform="translate(8.932 19.864)"/>
    <path id="Path_29019" d="M4.2 6.39A2.2 2.2 0 0 1 2 4.2 2.2 2.2 0 0 1 4.2 2a2.2 2.2 0 0 1 2.2 2.2 2.2 2.2 0 0 1-2.2 2.19z" class="cls-3" transform="translate(17.678 19.864)"/>
</svg>
