<svg xmlns="http://www.w3.org/2000/svg" id="Blackboard" width="26.265" height="26.265" viewBox="0 0 26.265 26.265">
    <defs>
        <style>
            .cls-1{fill:none;stroke:#2a2f33;stroke-linecap:round;stroke-linejoin:round;stroke-width:1.5px}
        </style>
    </defs>
    <g id="Group_10686" transform="translate(3.283 2.736)">
        <path id="Path_13596" d="M21.6 17.283H4.094A1.1 1.1 0 0 1 3 16.189v-1.095A1.1 1.1 0 0 1 4.094 14H21.6a1.1 1.1 0 0 1 1.1 1.094v1.094a1.1 1.1 0 0 1-1.1 1.095z" class="cls-1" transform="translate(-3 -1.415)"/>
        <path id="Path_13597" d="M5.094 4A1.1 1.1 0 0 0 4 5.094v9.849h17.51V5.094A1.1 1.1 0 0 0 20.416 4" class="cls-1" transform="translate(-2.906 -2.358)"/>
        <path id="Path_13598" d="M16.094 21.377L15 17" class="cls-1" transform="translate(-1.868 -1.132)"/>
        <path id="Path_13599" d="M8 21.377L9.094 17" class="cls-1" transform="translate(-2.528 -1.132)"/>
        <path id="Path_13600" d="M16.849 5.783H8.094A1.1 1.1 0 0 1 7 4.689V3.594A1.1 1.1 0 0 1 8.094 2.5h8.755a1.1 1.1 0 0 1 1.094 1.094v1.095a1.1 1.1 0 0 1-1.094 1.094z" class="cls-1" transform="translate(-2.623 -2.5)"/>
        <path id="Path_13601" d="M19.189 4H17" class="cls-1" transform="translate(-1.679 -2.358)"/>
        <path id="Path_13602" d="M7.189 4H5" class="cls-1" transform="translate(-2.811 -2.358)"/>
    </g>
    <path id="Path_13603" fill="none" d="M0 0h26.265v26.265H0z"/>
</svg>
