<svg xmlns="http://www.w3.org/2000/svg" width="132.642" height="38.034" viewBox="0 0 132.642 38.034">
    <defs>
        <style>
            .cls-1{fill:#0c0b31}
        </style>
    </defs>
    <g id="Group_9296" transform="translate(-7.903 -7.517)">
        <path id="Path_15347" d="M140.545 18.223v10.1a.938.938 0 0 1-.215.657.713.713 0 0 1-.552.331c-9.441 0-18.776-.11-28.112-.11a11.027 11.027 0 0 1-7.906-4.063 10.357 10.357 0 0 1-7.906 4.174 10.158 10.158 0 0 1-7.243-3.075 9.695 9.695 0 0 1-14.166 0 9.823 9.823 0 0 1-14.277 0 10.411 10.411 0 0 1-7.138 3.075c-2.738 0-6.227-1.2-7.779-3.842-.1-.182-.182-.337-.232-.442a18.8 18.8 0 0 1-2.86 2.523A11.787 11.787 0 0 1 37 29.314c-2.639 0-27.344.11-28.222 0a.974.974 0 0 1-.74-.386.87.87 0 0 1-.138-.491V9.876a2.617 2.617 0 0 1 .5-1.3 3 3 0 0 1 2.413-1.054l2.44.022a.417.417 0 0 1 .309.121.408.408 0 0 1 .116.3c0 1.987.011 14.183.039 14.763a.6.6 0 0 0 .061.237c.193.4.778.42.817.425h20.647a7.871 7.871 0 0 0 4.831-1.54 7.786 7.786 0 0 0 2.529-3.3 7.707 7.707 0 0 0 .48-1.772 1.356 1.356 0 0 1 .4-.74 1.39 1.39 0 0 1 .712-.342h3.958a.746.746 0 0 1 .508.21.783.783 0 0 1 .2.657c.017 1.093.017 1.954-.006 2.65a3.963 3.963 0 0 0 .149 1.319 4.2 4.2 0 0 0 7.978.547 4.48 4.48 0 0 0 .326-1.866v-2.784a.8.8 0 0 1 .248-.513.874.874 0 0 1 .519-.221c.48-.055 2.109-.066 4.328 0a.768.768 0 0 1 .563.265.749.749 0 0 1 .16.469v2.782a6.314 6.314 0 0 0 .155 1.319 4.228 4.228 0 0 0 8.3-1.319v-2.782a.773.773 0 0 1 .2-.519.821.821 0 0 1 .513-.215h4.163a.772.772 0 0 1 .558.166.8.8 0 0 1 .254.7l.044 3.815a4.46 4.46 0 0 0 4.257 3.335 4.415 4.415 0 0 0 3.953-2.633 7.325 7.325 0 0 0 .326-1.866v-2.634a.8.8 0 0 1 .188-.657.893.893 0 0 1 .613-.226c.591-.028 2.125-.033 4.179 0a.815.815 0 0 1 .585.293.77.77 0 0 1 .144.513l.006 2.711a4.387 4.387 0 0 0 .436 1.976 4.573 4.573 0 0 0 3.842 2.523 4.619 4.619 0 0 0 3.859-2.634 4.281 4.281 0 0 0 .4-1.6l.022-2.965a.852.852 0 0 1 .282-.651.816.816 0 0 1 .6-.171h3.975a.756.756 0 0 1 .524.232.824.824 0 0 1 .232.5v1.6a5.283 5.283 0 0 0 .718 2.214c1.253 2.092 3.715 2.655 4.775 2.9a10.168 10.168 0 0 0 1.866.243h20.753a.74.74 0 0 0 .613-.21.664.664 0 0 0 .155-.453V20.31a3.5 3.5 0 0 0-1.314-2.087 3.735 3.735 0 0 0-2.07-.767h-15.5a2.478 2.478 0 0 1-1.86-.712 2.29 2.29 0 0 1-.552-1.049V12.4a.78.78 0 0 1 .221-.552.815.815 0 0 1 .657-.221h18.663a7.941 7.941 0 0 1 4.941 1.761 8.049 8.049 0 0 1 2.744 4.835z" class="cls-1"/>
        <path id="Path_15348" d="M23.654 14.112H11.315a1.083 1.083 0 0 1-1.015-1.137V9.4a1.08 1.08 0 0 1 1.015-1.14h13.769A1.084 1.084 0 0 1 26.1 9.4v1.987a3.046 3.046 0 0 1-.817 2.032 2.372 2.372 0 0 1-1.629.693z" class="cls-1" transform="translate(10.832 3.36)"/>
        <path id="Path_15349" d="M39.222 13.325v3.953a1 1 0 0 1-.094.425.87.87 0 0 1-.823.508c-.4.006-1.833.017-3.793 0a.911.911 0 0 0-.563.271.846.846 0 0 0-.221.563v3.727a.971.971 0 0 1-.094.425.991.991 0 0 1-.894.563h-3.952a.987.987 0 0 1-.988-.988v-9.447a.894.894 0 0 1 .878-.988h9.556a.987.987 0 0 1 .988.988z" class="cls-1" transform="translate(89.928 21.791)"/>
        <path id="Path_15350" d="M35.86 18.218H23.521a1.084 1.084 0 0 1-1.021-1.137v-3.572a1.084 1.084 0 0 1 1.021-1.137h13.764a1.084 1.084 0 0 1 1.021 1.137v1.982a3.007 3.007 0 0 1-.817 2.032 2.335 2.335 0 0 1-1.629.695z" class="cls-1" transform="translate(65.99 21.95)"/>
    </g>
</svg>
