<svg xmlns="http://www.w3.org/2000/svg" id="Blackboard" width="24" height="24" viewBox="0 0 24 24">
    <defs>
        <style>
            .cls-1{fill:none;stroke:#fff;stroke-linecap:round;stroke-linejoin:round;stroke-width:1.5px}
        </style>
    </defs>
    <g id="Group_868" transform="translate(3 2.5)">
        <path id="Path_10356" d="M20 17H4a1 1 0 0 1-1-1v-1a1 1 0 0 1 1-1h16a1 1 0 0 1 1 1v1a1 1 0 0 1-1 1z" class="cls-1" transform="translate(-3 -2.5)"/>
        <path id="Path_10357" d="M5 4a1 1 0 0 0-1 1v9h16V5a1 1 0 0 0-1-1" class="cls-1" transform="translate(-3 -2.5)"/>
        <path id="Path_10358" d="M16 21l-1-4" class="cls-1" transform="translate(-3 -2.5)"/>
        <path id="Path_10359" d="M8 21l1-4" class="cls-1" transform="translate(-3 -2.5)"/>
        <path id="Path_10360" d="M16 5.5H8a1 1 0 0 1-1-1v-1a1 1 0 0 1 1-1h8a1 1 0 0 1 1 1v1a1 1 0 0 1-1 1z" class="cls-1" transform="translate(-3 -2.5)"/>
        <path id="Path_10361" d="M19 4h-2" class="cls-1" transform="translate(-3 -2.5)"/>
        <path id="Path_10362" d="M7 4H5" class="cls-1" transform="translate(-3 -2.5)"/>
    </g>
    <path id="Path_10363" fill="none" d="M0 0h24v24H0z"/>
</svg>
