<svg id="Bookmark_Notes" data-name="Bookmark, Notes" xmlns="http://www.w3.org/2000/svg" width="24" height="24" viewBox="0 0 24 24">
  <path id="Path_20322" data-name="Path 20322" d="M0,0H24V24H0Z" fill="none"/>
  <path id="Path_20323" data-name="Path 20323" d="M0,0H24V24H0Z" fill="none"/>
  <path id="Path_20324" data-name="Path 20324" d="M15,9h2" fill="none" stroke="#0c0b31" stroke-linecap="round" stroke-linejoin="round" stroke-width="1.75"/>
  <path id="Path_20325" data-name="Path 20325" d="M7,17H9" fill="none" stroke="#0c0b31" stroke-linecap="round" stroke-linejoin="round" stroke-width="1.75"/>
  <path id="Path_20326" data-name="Path 20326" d="M12,17h5" fill="none" stroke="#0c0b31" stroke-linecap="round" stroke-linejoin="round" stroke-width="1.75"/>
  <path id="Path_20327" data-name="Path 20327" d="M19,4a2,2,0,0,1,2,2V19a2,2,0,0,1-2,2H5a2,2,0,0,1-2-2V6A2,2,0,0,1,5,4" fill="none" stroke="#0c0b31" stroke-linecap="round" stroke-linejoin="round" stroke-width="1.75"/>
  <path id="Path_20328" data-name="Path 20328" d="M7,13H9" fill="none" stroke="#0c0b31" stroke-linecap="round" stroke-linejoin="round" stroke-width="1.75"/>
  <path id="Path_20329" data-name="Path 20329" d="M12,13h5" fill="none" stroke="#0c0b31" stroke-linecap="round" stroke-linejoin="round" stroke-width="1.75"/>
  <path id="Path_20330" data-name="Path 20330" d="M10,3H8A1,1,0,0,0,7,4V9L9,8l2,1V4A1,1,0,0,0,10,3Z" fill="none" stroke="#0c0b31" stroke-linecap="round" stroke-linejoin="round" stroke-width="1.75"/>
  <path id="Path_20331" data-name="Path 20331" d="M5,4H7" fill="none" stroke="#0c0b31" stroke-linecap="round" stroke-linejoin="round" stroke-width="1.75"/>
  <path id="Path_20332" data-name="Path 20332" d="M11,4h8" fill="none" stroke="#0c0b31" stroke-linecap="round" stroke-linejoin="round" stroke-width="1.75"/>
</svg>
