<svg xmlns="http://www.w3.org/2000/svg" id="Broken_Link_Unlink_Attachment.4" width="24" height="24" viewBox="0 0 24 24">
    <defs>
        <style>
            .cls-1,.cls-2{fill:none;stroke:#0c0b31;stroke-linecap:round;stroke-linejoin:round}.cls-1{stroke-width:1.5px}.cls-2{stroke-width:1.444px}
        </style>
    </defs>
    <g id="Group_344" transform="translate(3 3)">
        <path id="Path_4252" d="M8.89 15.11l6.22-6.22" class="cls-1" transform="translate(-3 -3)"/>
        <path id="Path_4253" d="M11 8l2-2a3.535 3.535 0 0 1 5 0 3.535 3.535 0 0 1 0 5l-2 2" class="cls-1" transform="translate(-3 -3)"/>
        <path id="Path_4254" d="M13 16l-2 2a3.535 3.535 0 0 1-5 0 3.535 3.535 0 0 1 0-5l2-2" class="cls-1" transform="translate(-3 -3)"/>
        <path id="Path_4255" d="M19 15h2" class="cls-2" transform="translate(-3 -3)"/>
        <path id="Path_4256" d="M15 21v-2" class="cls-2" transform="translate(-3 -3)"/>
        <path id="Path_4257" d="M18 18l1.41 1.41" class="cls-2" transform="translate(-3 -3)"/>
        <path id="Path_4258" d="M5 9H3" class="cls-2" transform="translate(-3 -3)"/>
        <path id="Path_4259" d="M9 3v2" class="cls-2" transform="translate(-3 -3)"/>
        <path id="Path_4260" d="M6 6L4.59 4.59" class="cls-2" transform="translate(-3 -3)"/>
    </g>
    <path id="Path_4261" fill="none" d="M0 0h24v24H0z"/>
</svg>
