<svg id="Broken_Link_Unlink_Attachment.4" data-name="Broken, Link, Unlink, Attachment.4" xmlns="http://www.w3.org/2000/svg" width="24" height="24" viewBox="0 0 24 24">
  <g id="Group_344" data-name="Group 344" transform="translate(3 3)">
    <path id="Path_4252" data-name="Path 4252" d="M8.89,15.11l6.22-6.22" transform="translate(-3 -3)" fill="none" stroke="#0c0b31" stroke-linecap="round" stroke-linejoin="round" stroke-width="1.75"/>
    <path id="Path_4253" data-name="Path 4253" d="M11,8l2-2a3.535,3.535,0,0,1,5,0h0a3.535,3.535,0,0,1,0,5l-2,2" transform="translate(-3 -3)" fill="none" stroke="#0c0b31" stroke-linecap="round" stroke-linejoin="round" stroke-width="1.75"/>
    <path id="Path_4254" data-name="Path 4254" d="M13,16l-2,2a3.535,3.535,0,0,1-5,0H6a3.535,3.535,0,0,1,0-5l2-2" transform="translate(-3 -3)" fill="none" stroke="#0c0b31" stroke-linecap="round" stroke-linejoin="round" stroke-width="1.75"/>
    <path id="Path_4255" data-name="Path 4255" d="M19,15h2" transform="translate(-3 -3)" fill="none" stroke="#0c0b31" stroke-linecap="round" stroke-linejoin="round" stroke-width="1.75"/>
    <path id="Path_4256" data-name="Path 4256" d="M15,21V19" transform="translate(-3 -3)" fill="none" stroke="#0c0b31" stroke-linecap="round" stroke-linejoin="round" stroke-width="1.75"/>
    <path id="Path_4257" data-name="Path 4257" d="M18,18l1.41,1.41" transform="translate(-3 -3)" fill="none" stroke="#0c0b31" stroke-linecap="round" stroke-linejoin="round" stroke-width="1.75"/>
    <path id="Path_4258" data-name="Path 4258" d="M5,9H3" transform="translate(-3 -3)" fill="none" stroke="#0c0b31" stroke-linecap="round" stroke-linejoin="round" stroke-width="1.75"/>
    <path id="Path_4259" data-name="Path 4259" d="M9,3V5" transform="translate(-3 -3)" fill="none" stroke="#0c0b31" stroke-linecap="round" stroke-linejoin="round" stroke-width="1.75"/>
    <path id="Path_4260" data-name="Path 4260" d="M6,6,4.59,4.59" transform="translate(-3 -3)" fill="none" stroke="#0c0b31" stroke-linecap="round" stroke-linejoin="round" stroke-width="1.75"/>
  </g>
  <path id="Path_4261" data-name="Path 4261" d="M0,0H24V24H0Z" fill="none"/>
</svg>
