<svg xmlns="http://www.w3.org/2000/svg" id="Phone_Call.6" width="24" height="24" viewBox="0 0 24 24">
    <defs>
        <style>
            .cls-1{fill:none;stroke:#2b2a4b;stroke-linecap:round;stroke-linejoin:round;stroke-width:1.5px}
        </style>
    </defs>
    <g id="Group_765">
        <path id="Path_9447" d="M10.131 13.869a12.634 12.634 0 0 1-2.638-3.809.75.75 0 0 1 .166-.827l.819-.819a1.53 1.53 0 0 0 .085-2.206L7.39 5.035a2 2 0 0 0-2.828 0l-.652.651a3.194 3.194 0 0 0-.85 2.87 15.715 15.715 0 0 0 4.461 7.923 15.715 15.715 0 0 0 7.923 4.461 3.194 3.194 0 0 0 2.87-.85l.651-.651a2 2 0 0 0 0-2.828l-1.173-1.173a1.5 1.5 0 0 0-2.121 0l-.9.9a.749.749 0 0 1-.827.166 12.678 12.678 0 0 1-3.81-2.639z" class="cls-1"/>
        <path id="Path_9448" d="M15 3v6h6" class="cls-1"/>
        <path id="Path_9449" d="M21 3l-6 6" class="cls-1"/>
    </g>
    <path id="Path_9450" fill="none" d="M0 0h24v24H0z"/>
</svg>
