<svg xmlns="http://www.w3.org/2000/svg" id="Camera_Photo" width="36" height="36" viewBox="0 0 36 36">
    <defs>
        <style>
            .cls-1{fill:rgba(12,11,49,.6)}
        </style>
    </defs>
    <g id="Group_782" transform="translate(4.501 5.999)">
        <path id="Subtraction_1" d="M24 24H3a3 3 0 0 1-3-3V7.5a3 3 0 0 1 3-3h3L8.192.746A1.506 1.506 0 0 1 9.488 0h7.956a1.508 1.508 0 0 1 1.284.727L21 4.5h3a3 3 0 0 1 3 3V21a3 3 0 0 1-3 3zM13.59 7.5a5.981 5.981 0 1 0 4.229 1.752A5.936 5.936 0 0 0 13.59 7.5z" class="cls-1"/>
    </g>
    <path id="Path_9573" fill="none" d="M0 0h36v36H0z"/>
    <path id="Path_12880" d="M13.436 9.92a3.141 3.141 0 1 1-4.443 0 3.142 3.142 0 0 1 4.443 0" class="cls-1" transform="translate(6.875 7.339)"/>
</svg>
