<svg xmlns="http://www.w3.org/2000/svg" id="Layer_2" width="24" height="24" viewBox="0 0 24 24">
    <defs>
        <style>
            .cls-2{fill:#0c0b31}
        </style>
    </defs>
    <g id="Business_Chart.21">
        <path id="Path_388" fill="none" d="M0 0h24v24H0z"/>
        <path id="Path_19734" d="M19.59 10.71h-5.51a1.87 1.87 0 0 1-1.87-1.87v-5.5a1.87 1.87 0 0 1 1.85-1.89h.28a8.42 8.42 0 0 1 7.1 7.1 1.88 1.88 0 0 1-1.6 2.12 1.18 1.18 0 0 1-.25.04zM14.08 3.2a.12.12 0 0 0-.12.13v5.51a.12.12 0 0 0 .12.12h5.5a.118.118 0 0 0 .13-.14 6.68 6.68 0 0 0-5.6-5.62z" class="cls-2"/>
        <path id="Path_19735" d="M18.39 18.85a1.9 1.9 0 0 1-1.33-.55l-2.89-2.89a1.88 1.88 0 0 1 1.33-3.2h4.34a1.89 1.89 0 0 1 1.61 2.12 8.45 8.45 0 0 1-1.56 3.77 1.45 1.45 0 0 1-.16.18 1.86 1.86 0 0 1-1.34.57zm.79-1.26zM15.5 14a.12.12 0 0 0-.12.12l2.92 3a.14.14 0 0 0 .18 0 6.66 6.66 0 0 0 1.24-3 .12.12 0 0 0-.11-.13z" class="cls-2"/>
        <path id="Path_19736" d="M9.82 22.63a8.46 8.46 0 0 1-1.3-16.82h.08a1.14 1.14 0 0 1 .26 0 1.89 1.89 0 0 1 1.86 1.89v6.08l4.33 4.39a1.63 1.63 0 0 1 .17.2 1.86 1.86 0 0 1-.36 2.63 8.46 8.46 0 0 1-3.8 1.58 8.62 8.62 0 0 1-1.24.05zm-1-15.1a6.71 6.71 0 1 0 5 12 .12.12 0 0 0 0-.17l-4.3-4.28A1.86 1.86 0 0 1 9 13.75V7.66a.12.12 0 0 0-.15-.13zm-.14-.86z" class="cls-2"/>
    </g>
</svg>
