<svg xmlns="http://www.w3.org/2000/svg" id="Messages_Chat.1" width="24" height="24" viewBox="0 0 24 24">
    <defs>
        <style>
            .cls-2{fill:none;stroke:#3a3958;stroke-linecap:round;stroke-linejoin:round;stroke-width:1.5px}
        </style>
    </defs>
    <path id="Path_11858" fill="none" d="M0 0h24v24H0z"/>
    <path id="Path_11859" d="M14 18l4 3v-3h1a2 2 0 0 0 2-2v-6a2 2 0 0 0-2-2h-8a2 2 0 0 0-2 2v6a2 2 0 0 0 2 2z" class="cls-2"/>
    <path id="Path_11860" d="M9 15l-3 2v-3H5a2 2 0 0 1-2-2V6a2 2 0 0 1 2-2h9a2 2 0 0 1 2 2v2" class="cls-2"/>
    <path id="Path_11861" d="M12.43 12.965a.05.05 0 1 1-.071 0 .05.05 0 0 1 .071 0" class="cls-2"/>
    <path id="Path_11862" d="M15.035 12.965a.05.05 0 1 1-.071 0 .05.05 0 0 1 .071 0" class="cls-2"/>
    <path id="Path_11863" d="M17.64 12.965a.05.05 0 1 1-.071 0 .05.05 0 0 1 .071 0" class="cls-2"/>
</svg>
