<svg xmlns="http://www.w3.org/2000/svg" width="16" height="16" viewBox="0 0 16 16">
    <g transform="translate(-841.042 -572.042)">
        <circle cx="8" cy="8" r="8" fill="#3f53d9" transform="translate(841.042 572.042)"/>
        <g>
            <path fill="none" d="M0 0h14.173v14.173H0z" transform="translate(841.669 573.276)"/>
            <path fill="#fff" d="M9.325 3.245l-.4-.313a.308.308 0 0 0-.43.053l-4.514 5.79a.27.27 0 0 1-.408.028L1.727 7a.308.308 0 0 0-.434 0l-.356.365a.307.307 0 0 0 .005.435l2.745 2.683a.268.268 0 0 0 .408-.028l5.284-6.78a.308.308 0 0 0-.053-.43z" transform="translate(841.669 573.276) translate(2.194 0.115)"/>
        </g>
    </g>
</svg>
