<svg id="Group_13696" data-name="Group 13696" xmlns="http://www.w3.org/2000/svg" width="24" height="24" viewBox="0 0 24 24">
  <rect id="Rectangle_7915" data-name="Rectangle 7915" width="24" height="24" rx="4" fill="#3f53d9"/>
  <g id="Read_Circle" data-name="Read, Circle" transform="translate(1.926 1.652)">
    <path id="Path_6153" data-name="Path 6153" d="M0,0H20.7V20.7H0Z" fill="none"/>
    <path id="Arrow1.7_-_Copy" data-name="Arrow1.7 - Copy" d="M13.226,3.419l-.588-.458a.449.449,0,0,0-.627.078L5.422,11.493a.394.394,0,0,1-.6.041L2.131,8.9A.45.45,0,0,0,1.5,8.9l-.52.533a.448.448,0,0,0,.007.632l4.008,3.918a.392.392,0,0,0,.6-.041l7.716-9.9a.449.449,0,0,0-.078-.627Z" transform="translate(3.595 1.488)" fill="#fff"/>
  </g>
</svg>
