<svg xmlns="http://www.w3.org/2000/svg" width="24" height="24" viewBox="0 0 24 24">
    <g>
        <path fill="none" d="M0 0h24v24H0z" transform="translate(-.328) matrix(0 -1 1 0 .328 24)"/>
        <g>
            <g>
                <path fill="none" stroke="#0c0b31" stroke-width="1.5px" d="M20.121 6.7a6.28 6.28 0 0 1-5.137 5.932l-2.211.481-.556.12c.036.165.074.323.112.472a16.251 16.251 0 0 0 2.383 5.248 9.963 9.963 0 0 1-2.011.789 10.2 10.2 0 0 1-2.638.351A10.394 10.394 0 0 1 5.487 19a16.263 16.263 0 0 0 1.373-2.388 16.333 16.333 0 0 0 1.066-3.02c.025-.1.049-.213.078-.334l-.65-.14-2.211-.481A6.277 6.277 0 0 1 .232 4.79l7.941 2.184a.168.168 0 0 0 0-.023 3.724 3.724 0 0 1-1.8-3.1 3.8 3.8 0 0 1 .441-1.871A3.728 3.728 0 0 1 9.185.136a3.752 3.752 0 0 1 2.081.076 3.693 3.693 0 0 1 .946.471A3.8 3.8 0 0 1 13.5 2.227a3.725 3.725 0 0 1-.2 3.443 3.884 3.884 0 0 1-1.23 1.258.142.142 0 0 0 0 .015L19.9 4.79a6.24 6.24 0 0 1 .221 1.91z" transform="translate(-.328) translate(1.563 2.216) translate(.005 .024) translate(-.005 -.024)"/>
            </g>
        </g>
    </g>
</svg>
