<svg xmlns="http://www.w3.org/2000/svg" width="24" height="23.451" viewBox="0 0 24 23.451">
    <g>
        <g>
            <path fill="#fff" d="M23.989 8.307a12.689 12.689 0 0 1-2.367 4.435 12.6 12.6 0 0 1-4.4 3.408 12.4 12.4 0 0 1-2.2.774q.111.338.218.637a32.973 32.973 0 0 0 2.16 4.852.3.3 0 0 1 .036.213.29.29 0 0 1-.106.168 20.21 20.21 0 0 1-10.8-.037.3.3 0 0 1-.1-.167.314.314 0 0 1 .042-.222 46.053 46.053 0 0 0 2.138-4.807c.08-.227.157-.454.227-.667a12.476 12.476 0 0 1-2.78-1.088 12.582 12.582 0 0 1-5-4.94A12.189 12.189 0 0 1 .009 8.311.41.41 0 0 1 .1 7.946a.4.4 0 0 1 .341-.127h5.3a5.017 5.017 0 0 1 2.1.382 4.624 4.624 0 0 1 .7.382l1.8 1.146.015-.167c.033-.358.053-.652.065-.839a.4.4 0 0 0-.081-.255.382.382 0 0 0-.158-.127 4.911 4.911 0 0 1-2-1.8 4.61 4.61 0 0 1-.382-.832 4.329 4.329 0 1 1 8.245 0 4.71 4.71 0 0 1-.373.836 5 5 0 0 1-2.037 1.814.367.367 0 0 0-.146.143.382.382 0 0 0-.05.223c.011.187.032.48.064.838 0 .06.011.12.017.18l2.155-1.363a4.173 4.173 0 0 1 .71-.326 4.635 4.635 0 0 1 1.6-.236c2.955-.046 5.119-.042 5.523.01.093.011.354.042.447.223a.4.4 0 0 1 .032.256z" transform="translate(.003 -.06) translate(-.002 .06) translate(.002 -.06)"/>
        </g>
    </g>
</svg>
