<svg xmlns="http://www.w3.org/2000/svg" width="24" height="24" viewBox="0 0 24 24">
    <path fill="none" d="M0 0h24v24H0z"/>
    <path fill="#2a2f33" d="M5.612 17.958h6.7a2.809 2.809 0 0 0 2.806-2.806V5.647a2.809 2.809 0 0 0-2.806-2.806h-6.7a2.809 2.809 0 0 0-2.806 2.806v9.505a2.809 2.809 0 0 0 2.806 2.806zm6.7-13.714a1.4 1.4 0 0 1 1.4 1.4v9.505a1.4 1.4 0 0 1-1.4 1.4h-6.7a1.4 1.4 0 0 1-1.4-1.4V5.647a1.4 1.4 0 0 1 1.4-1.4zM0 13.4V2.806A2.809 2.809 0 0 1 2.806 0h7.787a.7.7 0 1 1 0 1.4H2.806a1.4 1.4 0 0 0-1.4 1.4v10.6a.7.7 0 0 1-1.4 0zm0 0" transform="translate(4.271 3.135)"/>
</svg>
