<svg xmlns="http://www.w3.org/2000/svg" id="Delivery_Check_List" width="35" height="35" viewBox="0 0 35 35">
    <defs>
        <style>
            .cls-1{fill:none;stroke:#0c0b31;stroke-linecap:round;stroke-linejoin:round;stroke-width:2.25px}
        </style>
    </defs>
    <g id="Group_14003" transform="translate(5.796 2.926)">
        <path id="Path_20430" d="M8 4.926l1.9-2.377A1.464 1.464 0 0 1 11.044 2h5.616a1.464 1.464 0 0 1 1.143.549l1.9 2.377v1.463a1.464 1.464 0 0 1-1.463 1.463H9.463A1.464 1.464 0 0 1 8 6.389V4.926z" class="cls-1" transform="translate(-2.148 -2)"/>
        <path id="Path_20432" d="M13 18h4.389" class="cls-1" transform="translate(0.898 5.296)"/>
        <path id="Path_29015" d="M13 18h4.389" class="cls-1" transform="translate(-7.88 5.296)"/>
        <path id="Path_20433" d="M13 10h4.389" class="cls-1" transform="translate(0.898 1.659)"/>
        <path id="Path_29013" d="M13 10h4.389" class="cls-1" transform="translate(-7.88 1.659)"/>
        <path id="Path_20435" d="M13 14h4.389" class="cls-1" transform="translate(0.898 3.489)"/>
        <path id="Path_29014" d="M13 14h4.389" class="cls-1" transform="translate(-7.88 3.489)"/>
        <path id="Path_20436" d="M21.556 4h2.926a2.919 2.919 0 0 1 2.926 2.914v20.4a2.919 2.919 0 0 1-2.926 2.914H6.926A2.919 2.919 0 0 1 4 27.309V6.914A2.919 2.919 0 0 1 6.926 4h2.926" class="cls-1" transform="translate(-4 -1.074)"/>
    </g>
    <path id="Path_20437" fill="none" d="M0 0h35v35H0z"/>
</svg>
