<svg xmlns="http://www.w3.org/2000/svg" width="23.8" height="30" viewBox="0 0 23.8 30">
  <g id="Documents_File.3" data-name="Documents, File.3" transform="translate(-6.973 -3.824)">
    <g id="Group_13246" transform="translate(6.973 3.824)">
      <path id="Path_19993" data-name="Path 19993" d="M21.7,4.8,17.2.3A3.949,3.949,0,0,0,14.4-.9H3.1A3.631,3.631,0,0,0,.3.3,4.417,4.417,0,0,0-.9,3.1v22A3.631,3.631,0,0,0,.3,27.9a3.949,3.949,0,0,0,2.8,1.2H18.9a3.631,3.631,0,0,0,2.8-1.2,3.949,3.949,0,0,0,1.2-2.8V7.6A3.631,3.631,0,0,0,21.7,4.8ZM15,1a2.075,2.075,0,0,1,1,.6L20.5,6a2.075,2.075,0,0,1,.6,1H15.8a.773.773,0,0,1-.8-.7Zm6.2,24.2a1.99,1.99,0,0,1-.7,1.6,2.36,2.36,0,0,1-1.6.7H3.1a1.99,1.99,0,0,1-1.6-.7,2.36,2.36,0,0,1-.7-1.6V3.2a1.99,1.99,0,0,1,.7-1.6A2.36,2.36,0,0,1,3.1.9H13.2V6.3a2.456,2.456,0,0,0,2.5,2.4h5.4V25.2Z" transform="translate(0.9 0.9)"/>
      <path id="Path_19994" data-name="Path 19994" d="M17.5,12.4a2.413,2.413,0,0,0-1.7-.7H6.3a2.523,2.523,0,0,0-2.5,2.4V22a2.476,2.476,0,0,0,2.5,2.5h9.5A2.54,2.54,0,0,0,18.3,22V14.1A3.805,3.805,0,0,0,17.5,12.4ZM5.6,14.2a.684.684,0,0,1,.7-.7h3.9v3.8H5.6Zm0,7.8V19h4.6v3.8H6.3A.849.849,0,0,1,5.6,22Zm10.8,0a.684.684,0,0,1-.7.7H11.9V19h4.5Zm0-4.8H11.9V13.4h3.8a.684.684,0,0,1,.7.7v3.1Z" transform="translate(0.9 0.9)"/>
    </g>
  </g>
</svg>
