<svg xmlns="http://www.w3.org/2000/svg" id="Layer_2" width="24" height="24" viewBox="0 0 24 24">

    <g>
        <path fill="none" d="M0 0h24v24H0z"/>
        <path  d="M12 19.88c-4.06 0-7.77-3.52-9.65-7a1.83 1.83 0 0 1 0-1.76c1.88-3.48 5.59-7 9.65-7s7.77 3.51 9.65 7a1.83 1.83 0 0 1 0 1.76c-1.88 3.48-5.59 7-9.65 7zm-8.11-7.83c1.93 3.58 5.27 6.08 8.11 6.08s6.18-2.5 8.11-6.08a.09.09 0 0 0 0-.1C18.18 8.37 14.84 5.88 12 5.88S5.82 8.37 3.89 12a.09.09 0 0 0 0 .1z" class="cls-2"/>
        <path d="M12 15.88a3.88 3.88 0 1 1 2.74-6.62A3.88 3.88 0 0 1 12 15.88zm0-6a2.12 2.12 0 0 0-1.5 3.62 2.16 2.16 0 0 0 3 0A2.12 2.12 0 0 0 12 9.88z" fill="currentColor"/>
    </g>
</svg>
