<svg xmlns="http://www.w3.org/2000/svg" width="29" height="29" viewBox="0 0 29 29">
    <path fill="rgba(0,0,0,0)" d="M0 0h29v29H0z"/>
    <path fill="none" stroke="#2a2f33" stroke-linecap="round" stroke-linejoin="round" stroke-width="2.5px" d="M14.5 22.07l5.211 2.767a1.386 1.386 0 0 0 2.006-1.473l-1-5.862 4.217-4.149a1.4 1.4 0 0 0-.767-2.383l-5.825-.856-2.6-5.335a1.377 1.377 0 0 0-2.48 0l-2.606 5.335-5.825.856a1.4 1.4 0 0 0-.767 2.383L8.28 17.5l-1 5.862a1.385 1.385 0 0 0 2.01 1.475l5.21-2.767z"/>
</svg>
