<svg xmlns="http://www.w3.org/2000/svg" id="Favorite" width="17.631" height="17.631" viewBox="0 0 17.631 17.631">
    <path id="Path_11725" fill="rgba(0,0,0,0)" d="M0 0h17.631v17.631H0z" data-name="Path 11725"/>
    <path id="Path_11726" fill="#c5c9cc" d="M9.988 14.5l3.045 1.608a.809.809 0 0 0 1.172-.856l-.582-3.407 2.465-2.412a.813.813 0 0 0-.448-1.385l-3.4-.5-1.522-3.1a.807.807 0 0 0-1.449 0l-1.523 3.1-3.4.5a.813.813 0 0 0-.448 1.385l2.465 2.412-.582 3.407a.809.809 0 0 0 1.172.856L9.989 14.5z" data-name="Path 11726" transform="translate(-1.173 -1.288)"/>
</svg>
