<svg id="exel" xmlns="http://www.w3.org/2000/svg" width="50" height="50" viewBox="0 0 50 50">
  <g id="Documents_File_Text.1" data-name="Documents File Text.1">
    <g id="Group_13257" data-name="Group 13257" transform="translate(8.135 4.623)">
      <path id="Path_19848" data-name="Path 19848" d="M35.967,9.7,30,3.9a6.2,6.2,0,0,0-4.281-1.74H10.284A6.049,6.049,0,0,0,4.12,8.042V37.035A6.067,6.067,0,0,0,10.284,43h21.4a6.088,6.088,0,0,0,6.164-5.964V13.9A5.753,5.753,0,0,0,35.967,9.7Zm-2.59,2.485a.813.813,0,0,1,.171.207H27.406a.255.255,0,0,1-.257-.207V6.24l.257.145Zm.706,24.852a2.38,2.38,0,0,1-2.4,2.34h-21.4a2.379,2.379,0,0,1-2.4-2.34V8.042a2.359,2.359,0,0,1,2.4-2.319h13.1v6.461a3.981,3.981,0,0,0,4.024,3.893h6.678Z" transform="translate(-4.12 -2.16)" fill="#3f53d9"/>
    </g>
    <path id="Path_19752" data-name="Path 19752" d="M0,0H50V50H0Z" fill="none"/>
  </g>
</svg>
