<svg xmlns="http://www.w3.org/2000/svg" id="Filter_Sort" width="24" height="24" data-name="Filter, Sort" viewBox="0 0 24 24">
    <path id="Path_5064" fill="none" d="M0 0h24v24H0z" data-name="Path 5064"/>
    <path id="Path_5066" fill="none" stroke="#fff" stroke-linecap="round" stroke-linejoin="round" stroke-width="2px" d="M15.2 13.036V17.8a1.775 1.775 0 0 1-.983 1.589l-2.848 1.424A1.777 1.777 0 0 1 8.8 19.22v-6.184L4.692 9.868A1.779 1.779 0 0 1 4 8.46V5.778A1.778 1.778 0 0 1 5.778 4h12.444A1.778 1.778 0 0 1 20 5.778V8.46a1.782 1.782 0 0 1-.692 1.408L15.2 13.036z" data-name="Path 5066"/>
</svg>
