<svg xmlns="http://www.w3.org/2000/svg" id="prefix__Group_9362" width="24" height="24" data-name="Group 9362" viewBox="0 0 24 24">
    <g id="prefix__Filter_Sort" fill="none" data-name="Filter, Sort">
        <path id="prefix__Path_5064" d="M0 0h24v24H0z" data-name="Path 5064"/>
        <path id="prefix__Path_5066" stroke="#1641ff" stroke-linecap="round" stroke-linejoin="round" stroke-width="2px" d="M14.29 12.3v4.372a1.631 1.631 0 0 1-.9 1.46l-2.619 1.308a1.632 1.632 0 0 1-2.363-1.46V12.3L4.636 9.39A1.634 1.634 0 0 1 4 8.1V5.633A1.633 1.633 0 0 1 5.633 4h11.431A1.633 1.633 0 0 1 18.7 5.633V8.1a1.637 1.637 0 0 1-.636 1.293L14.29 12.3z" data-name="Path 5066" transform="translate(.651 .692)"/>
    </g>
</svg>
