<svg xmlns="http://www.w3.org/2000/svg" width="24" height="24" viewBox="0 0 24 24">
    <g>
        <path fill="none" d="M0 0h24v24H0z"/>
        <path fill="#ff6575" d="M21 6.8L17.2 3a2.81 2.81 0 0 0-2-.84H8.83A2.81 2.81 0 0 0 6.8 3L3 6.8a2.82 2.82 0 0 0-.85 2v6.34a2.86 2.86 0 0 0 .85 2L6.8 21a2.82 2.82 0 0 0 2 .85h6.34a2.86 2.86 0 0 0 2-.85L21 17.2a2.82 2.82 0 0 0 .85-2V8.83A2.82 2.82 0 0 0 21 6.8zM4.2 16a1.17 1.17 0 0 1-.32-.8V8.83A1.13 1.13 0 0 1 4.2 8L8 4.2a1.17 1.17 0 0 1 .8-.32h6.34a1.14 1.14 0 0 1 .8.32l1.29 1.3L5.5 17.27zm15.92-.8a1.14 1.14 0 0 1-.32.8L16 19.8a1.15 1.15 0 0 1-.8.33H8.83A1.14 1.14 0 0 1 8 19.8l-1.26-1.29L18.5 6.74 19.79 8a1.11 1.11 0 0 1 .33.8z"/>
    </g>
</svg>
