<svg id="Phone_Call.11" data-name="Phone, Call.11" xmlns="http://www.w3.org/2000/svg" width="20" height="20" viewBox="0 0 20 20">
  <path id="Path_29588" data-name="Path 29588" d="M9.132,10.868a9.581,9.581,0,0,1-2-2.888.568.568,0,0,1,.126-.627l.621-.62a1.16,1.16,0,0,0,.064-1.673l-.89-.89a1.516,1.516,0,0,0-2.145,0l-.494.494A2.422,2.422,0,0,0,3.77,6.839a11.917,11.917,0,0,0,3.383,6.008,11.917,11.917,0,0,0,6.008,3.383,2.422,2.422,0,0,0,2.176-.645l.494-.494a1.516,1.516,0,0,0,0-2.145l-.89-.89a1.137,1.137,0,0,0-1.608,0l-.685.686a.568.568,0,0,1-.627.126,9.6,9.6,0,0,1-2.888-2Z" transform="translate(0 0)" fill="none" stroke="#fff" stroke-linecap="round" stroke-linejoin="round" stroke-width="1.5"/>
  <path id="Path_29589" data-name="Path 29589" d="M0,0H20V20H0Z" fill="none"/>
</svg>
