<svg xmlns="http://www.w3.org/2000/svg" id="Layer_2" width="24" height="24" viewBox="0 0 24 24">
    <defs>
        <style>
            .cls-2{fill:#0c0b31}
        </style>
    </defs>
    <g id="Alarm_Clock_Time.2">
        <path id="Path_19739" fill="none" d="M0 0v24h24V0zm12 21.88a9.93 9.93 0 0 1-7.89-4 .88.88 0 0 1 1.41-1.05A8.11 8.11 0 1 0 12 3.88a.88.88 0 1 1 0-1.75 9.88 9.88 0 1 1 0 19.75z"/>
        <path id="Path_19740" d="M21.88 12a9.86 9.86 0 0 1-17.77 5.91.88.88 0 0 1 1.41-1.05A8.11 8.11 0 1 0 12 3.88a.88.88 0 1 1 0-1.75A9.89 9.89 0 0 1 21.88 12z" class="cls-2"/>
        <path id="Path_19741" d="M2.51 14.7a.88.88 0 0 1 .59-1.09.89.89 0 0 1 1.09.6.87.87 0 0 1-.6 1.08.67.67 0 0 1-.24 0 .88.88 0 0 1-.84-.59zM3 12.06a.87.87 0 0 1-.79-1 .87.87 0 0 1 1-.79.87.87 0 0 1 .79.95.88.88 0 0 1-.87.79H3zm.58-3.24a.88.88 0 0 1-.39-1.18.88.88 0 0 1 1.18-.39.86.86 0 0 1 .39 1.17.87.87 0 0 1-.78.49.92.92 0 0 1-.44-.09zM5.25 6a.87.87 0 0 1 0-1.24.87.87 0 0 1 1.24 0 .88.88 0 0 1 0 1.24.86.86 0 0 1-.6.24.9.9 0 0 1-.64-.24zm2.6-2a.88.88 0 0 1 .49-1.14.88.88 0 0 1 1.14.49A.88.88 0 0 1 9 4.46a1 1 0 0 1-.33.06.89.89 0 0 1-.82-.52z" class="cls-2"/>
        <path id="Path_19742" d="M7.36 16.51a.87.87 0 0 1-.75-.42.88.88 0 0 1 .3-1.2l4.5-2.69V6.38a.88.88 0 1 1 1.75 0v6.32a.89.89 0 0 1-.43.75l-4.92 2.94a.92.92 0 0 1-.45.12z" class="cls-2"/>
    </g>
</svg>
