<svg xmlns="http://www.w3.org/2000/svg" id="Info_Infornation" width="29" height="29" viewBox="0 0 29 29">
    <defs>
        <style>
            .cls-2{fill:none;stroke:#2a2f33;stroke-linecap:round;stroke-linejoin:round;stroke-width:2.5px}
        </style>
    </defs>
    <path id="Path_13712" fill="none" d="M0 0h29v29H0z"/>
    <path id="Path_13713" d="M14.5 26A11.5 11.5 0 0 1 3 14.5 11.5 11.5 0 0 1 14.5 3 11.5 11.5 0 0 1 26 14.5 11.5 11.5 0 0 1 14.5 26z" class="cls-2"/>
    <path id="Path_13714" d="M12 17v-5h-1" class="cls-2" transform="translate(2.391 3.158)"/>
    <path id="Path_13715" d="M11.749 8a.25.25 0 1 0 .251.25.249.249 0 0 0-.251-.25" class="cls-2" transform="translate(2.447 1.702)"/>
</svg>
