<svg xmlns="http://www.w3.org/2000/svg" id="Info_Infornation" width="24" height="24" viewBox="0 0 24 24">
    <defs>
        <style>
            .cls-2{fill:none;stroke:#2a2f33;stroke-linecap:round;stroke-linejoin:round;stroke-width:1.5px}
        </style>
    </defs>
    <path id="Path_5364" fill="none" d="M0 0h24v24H0z"/>
    <path id="Path_5365" d="M12.042 21A9.021 9.021 0 0 1 3 12a9.021 9.021 0 0 1 9.042-9 9.021 9.021 0 0 1 9.042 9 9.021 9.021 0 0 1-9.042 9z" class="cls-2" transform="translate(-.042)"/>
    <path id="Path_5366" d="M11.986 17v-5H11" class="cls-2" transform="translate(.007)"/>
    <path id="Path_5367" d="M11.746 8a.25.25 0 1 0 .247.25.247.247 0 0 0-.247-.25" class="cls-2" transform="translate(.003)"/>
</svg>
