<svg xmlns="http://www.w3.org/2000/svg" id="instagram" width="18.589" height="18.589" viewBox="0 0 18.589 18.589">
    <defs>
        <style>
            .cls-1{fill:#fff}
        </style>
    </defs>
    <path id="Path_15341" d="M154.33 150.5a3.83 3.83 0 1 0 3.83 3.83 3.835 3.835 0 0 0-3.83-3.83zm0 0" class="cls-1" transform="translate(-145.036 -145.036)"/>
    <path id="Path_15342" d="M16.716 1.873A6.332 6.332 0 0 0 12.211 0H6.378A6.395 6.395 0 0 0 0 6.378v5.833a6.395 6.395 0 0 0 6.378 6.378h5.833a6.395 6.395 0 0 0 6.378-6.378V6.378a6.333 6.333 0 0 0-1.873-4.5zM9.295 14.214a4.919 4.919 0 1 1 4.919-4.919 4.925 4.925 0 0 1-4.919 4.919zm5.45-9.6a.545.545 0 1 1 .16-.385.549.549 0 0 1-.16.385zm0 0" class="cls-1"/>
</svg>
