<svg xmlns="http://www.w3.org/2000/svg" id="Layer_2" width="24" height="24" viewBox="0 0 24 24">
    <defs>
        <style>
            .cls-2{fill:#0c0b31}
        </style>
    </defs>
    <g id="Layer_1">
        <path id="Path_20281" fill="none" d="M0 0h24v24H0z"/>
        <path id="Path_20282" d="M12 13.5a5.25 5.25 0 1 1 3.71-9 5.25 5.25 0 0 1-3.71 9zM12 5a3.25 3.25 0 0 0-2.3 5.55 3.33 3.33 0 0 0 4.6 0 3.26 3.26 0 0 0 0-4.6A3.25 3.25 0 0 0 12 5z" class="cls-2"/>
        <path id="Path_20283" d="M4 21a1 1 0 0 1-1-1 5.51 5.51 0 0 1 5.5-5.5h2.58a1 1 0 0 1 0 2H8.5A3.5 3.5 0 0 0 5 20a1 1 0 0 1-1 1z" class="cls-2"/>
        <path id="Path_20284" d="M21 18a1 1 0 0 1-1 1h-1.5v1.5a1 1 0 0 1-2 0V19H15a1 1 0 0 1 0-2h1.5v-1.5a1 1 0 0 1 2 0V17H20a1 1 0 0 1 1 1z" class="cls-2"/>
    </g>
</svg>
