<svg xmlns="http://www.w3.org/2000/svg" id="linkedin" width="18.589" height="18.589" viewBox="0 0 18.589 18.589">
    <defs>
        <style>
            .cls-1{fill:#fff}
        </style>
    </defs>
    <path id="Path_15344" d="M20.5 20.3v-6.822c0-3.335-.718-5.9-4.617-5.9a4.048 4.048 0 0 0-3.646 2h-.054V7.885h-3.7V20.3h3.849v-6.149c0-1.618.307-3.183 2.31-3.183 1.974 0 2 1.846 2 3.286V20.3z" class="cls-1" transform="translate(-1.914 -1.708)"/>
    <path id="Path_15345" d="M.4 7.977h3.85v12.41H.4z" class="cls-1" transform="translate(-.089 -1.799)"/>
    <path id="Path_15346" d="M2.232 0a2.243 2.243 0 1 0 2.232 2.232A2.233 2.233 0 0 0 2.232 0z" class="cls-1"/>
</svg>
