<svg xmlns="http://www.w3.org/2000/svg" id="Arrow.24" width="32" height="32" viewBox="0 0 32 32">
    <g id="Group_13217" transform="translate(5.123 6.21)">
        <path id="log_out_-_Copy" d="M10.185 13.045a1.088 1.088 0 0 1 .139-1.381l4.346-4.345a1.088 1.088 0 1 1 1.538 1.538l-2.494 2.494h8.252a1.088 1.088 0 0 1 0 2.175h-8.252l2.494 2.494a1.088 1.088 0 1 1-1.538 1.538l-4.345-4.346a1.084 1.084 0 0 1-.139-.169z" class="cls-2" transform="translate(-1.298 -2.649)"/>
        <path id="log_out_-_Copy-2" d="M5.263 3A3.263 3.263 0 0 0 2 6.263v13.053a3.263 3.263 0 0 0 3.263 3.263h9.79V20.4h-9.79a1.088 1.088 0 0 1-1.088-1.088V6.263a1.088 1.088 0 0 1 1.088-1.088h9.79V3z" class="cls-2" transform="translate(-2 -3)"/>
    </g>
</svg>
