<svg xmlns="http://www.w3.org/2000/svg" width="104.591" height="30.11" viewBox="0 0 104.591 30.11">
    <defs>
        <style>
            .cls-1{fill:#fff;stroke:#fff;stroke-miterlimit:10;stroke-width:.02px}
        </style>
    </defs>
    <g id="Group_10396" data-name="Group 10396" transform="translate(-3.57 -8.492)">
        <g id="Layer_2" data-name="Layer 2" transform="translate(32.58 49.683)">
            <g id="Layer_1" data-name="Layer 1" transform="translate(-29 -41.179)">
                <path id="Path_13485" d="M104.569 8.449v7.96a.732.732 0 0 1-.168.518.564.564 0 0 1-.427.259c-7.442 0-14.808-.091-22.158-.091a8.22 8.22 0 0 1-4.941-1.845 8.1 8.1 0 0 1-1.3-1.3 8.159 8.159 0 0 1-6.237 3.294 7.991 7.991 0 0 1-5.719-2.425 7.625 7.625 0 0 1-11.163 0 7.747 7.747 0 0 1-11.254 0 8.2 8.2 0 0 1-5.627 2.425 7.259 7.259 0 0 1-6.1-3.05l-.183-.351a14.609 14.609 0 0 1-2.257 2 9.272 9.272 0 0 1-4.072 1.388c-2.074 0-21.548.092-22.25 0a.747.747 0 0 1-.579-.3A.671.671 0 0 1 0 16.5V1.876A2.059 2.059 0 0 1 .412.855 2.364 2.364 0 0 1 2.318 0H4.24a.319.319 0 0 1 .335.366V12a.473.473 0 0 0 0 .2c.152.32.61.335.64.335h16.348a6.207 6.207 0 0 0 3.812-1.2 6.1 6.1 0 0 0 2.379-4 1.052 1.052 0 0 1 .884-.854h3.05a.6.6 0 0 1 .4.168.61.61 0 0 1 .168.518v2.09a3.141 3.141 0 0 0 .122 1.037 3.34 3.34 0 0 0 6.542-1.037V7.046a.64.64 0 0 1 .2-.412.7.7 0 0 1 .412-.168h3.416a.6.6 0 0 1 .442.213.58.58 0 0 1 .122.366v2.182a5.079 5.079 0 0 0 .122 1.037 3.324 3.324 0 0 0 6.542-1.037V7.046a.6.6 0 0 1 .152-.412.625.625 0 0 1 .412-.168h3.279a.61.61 0 0 1 .442.122.64.64 0 0 1 .2.549v3.05a3.416 3.416 0 0 0 6.557.488 5.825 5.825 0 0 0 .259-1.525v-2a.61.61 0 0 1 .153-.518.686.686 0 0 1 .488-.183h3.294a.61.61 0 0 1 .457.229.6.6 0 0 1 .122.412v2.137a3.508 3.508 0 0 0 .351 1.525 3.614 3.614 0 0 0 3.05 2 3.66 3.66 0 0 0 3.05-2.074 3.477 3.477 0 0 0 .32-1.25V7.107a.64.64 0 0 1 .214-.518.625.625 0 0 1 .473-.137h3.121a.61.61 0 0 1 .412.183.686.686 0 0 1 .183.4V8.3a4.163 4.163 0 0 0 .61 1.738 5.658 5.658 0 0 0 3.767 2.287 7.7 7.7 0 0 0 1.525.2h16.225a.564.564 0 0 0 .488-.168.518.518 0 0 0 .12-.357v-1.9a2.776 2.776 0 0 0-1.037-1.647 2.959 2.959 0 0 0-1.632-.61h-12.2a1.937 1.937 0 0 1-1.525-.564 1.784 1.784 0 0 1-.442-.823V3.874a.625.625 0 0 1 .168-.427.641.641 0 0 1 .64-.183h14.64a6.268 6.268 0 0 1 3.9 1.311 6.344 6.344 0 0 1 2.15 3.873z" class="cls-1" data-name="Path 13485"/>
                <path id="Path_13486" d="M16.918 6.751H7.189a.854.854 0 0 1-.808-.9V3.03a.854.854 0 0 1 .808-.9H18a.854.854 0 0 1 .808.9v1.525a2.379 2.379 0 0 1-.64 1.6 1.845 1.845 0 0 1-1.25.595z" class="cls-1" data-name="Path 13486" transform="translate(3.349 1.119)"/>
                <path id="Path_13487" fill="#fff" stroke="#fff" stroke-miterlimit="10" stroke-width="0.02px" d="M65.721 14.648V17.7a.762.762 0 0 1 0 .335.717.717 0 0 1-.229.29.747.747 0 0 1-.412.122h-3.05a.732.732 0 0 0-.412.2.686.686 0 0 0-.168.442v2.943a.793.793 0 0 1 0 .335.778.778 0 0 1-.7.442H57.7a.778.778 0 0 1-.778-.778v-7.383a.7.7 0 0 1 .686-.778h7.533a.778.778 0 0 1 .58.778z" data-name="Path 13487" transform="translate(29.881 7.282)"/>
                <path id="Path_13488" d="M52.2 18.481h-9.731a.854.854 0 0 1-.808-.9V14.76a.854.854 0 0 1 .808-.9h10.858a.854.854 0 0 1 .808.9v1.525a2.379 2.379 0 0 1-.64 1.6 1.845 1.845 0 0 1-1.295.596z" class="cls-1" data-name="Path 13488" transform="translate(21.871 7.277)"/>
            </g>
        </g>
    </g>
</svg>
