<svg xmlns="http://www.w3.org/2000/svg" width="41.476" height="43.217" viewBox="0 0 41.476 43.217">
  <g id="meetings" transform="translate(-5.814 -6.453)">
    <path id="Path_29383" data-name="Path 29383" d="M18.18,26.531a4.988,4.988,0,0,0-3.812,1.9,7.351,7.351,0,0,0-1.631,4.719,6.964,6.964,0,0,0,2.751,5.75v1.525a8.379,8.379,0,0,0-8.6,7.749l22.563-.185a8.38,8.38,0,0,0-8.582-7.564V38.9a6.964,6.964,0,0,0,2.751-5.75,7.351,7.351,0,0,0-1.631-4.719A4.988,4.988,0,0,0,18.18,26.531Z" transform="translate(0 -7.22)" fill="none" stroke="#ebebef" stroke-width="2" fill-rule="evenodd"/>
    <path id="Path_29384" data-name="Path 29384" d="M50.86,18.246a4.158,4.158,0,0,0-3.177,1.584,6.17,6.17,0,0,0-1.368,3.961,5.827,5.827,0,0,0,2.344,4.85v1.442A7.046,7.046,0,0,0,41.342,36.5l19.016-.177a7.047,7.047,0,0,0-7.3-6.235V28.641a5.827,5.827,0,0,0,2.344-4.85,6.17,6.17,0,0,0-1.368-3.961A4.158,4.158,0,0,0,50.86,18.246Z" transform="translate(-13.069 -4.077)" fill="#ebebef" fill-rule="evenodd"/>
    <path id="Path_29385" data-name="Path 29385" d="M25.418,14.252c4.944-7.39,14.493-8.215,18.76-4.88" transform="translate(-7.028 0)" fill="none" stroke="#ebebef" stroke-linecap="round" stroke-linejoin="round" stroke-width="2"/>
    <path id="Path_29386" data-name="Path 29386" d="M26.8,66.062c8.524,4.939,19.859,0,22.511-7.281" transform="translate(-7.552 -19.454)" fill="none" stroke="#ebebef" stroke-linecap="round" stroke-linejoin="round" stroke-width="2"/>
  </g>
</svg>
