<svg xmlns="http://www.w3.org/2000/svg" id="User_Profile.8" width="24" height="24" data-name="User,Profile.8" viewBox="0 0 24 24">
    <defs>
        <style>
            .cls-1{fill:none;stroke:#536b88;stroke-linecap:round;stroke-linejoin:round;stroke-width:1.5px}
        </style>
    </defs>
    <g id="Group_1031" data-name="Group 1031" transform="translate(2 3.5)">
        <path id="Path_12386" d="M10.091 8.159a2.25 2.25 0 1 1-3.182 0 2.25 2.25 0 0 1 3.182 0" class="cls-1" data-name="Path 12386" transform="translate(-2 -3.5)"/>
        <path id="Path_12387" d="M2 18.5V5.541A2.041 2.041 0 0 1 4.041 3.5H20a2 2 0 0 1 2 2v13a2 2 0 0 1-2 2H4a2 2 0 0 1-2-2z" class="cls-1" data-name="Path 12387" transform="translate(-2 -3.5)"/>
        <path id="Path_12388" d="M15 9.5h4" class="cls-1" data-name="Path 12388" transform="translate(-2 -3.5)"/>
        <path id="Path_12389" d="M17.4 13.5H15" class="cls-1" data-name="Path 12389" transform="translate(-2 -3.5)"/>
        <path id="Path_12390" d="M12.1 16.5a3.17 3.17 0 0 0-.792-1.154 3.173 3.173 0 0 0-2.162-.846H7.854a3.173 3.173 0 0 0-2.157.846 3.17 3.17 0 0 0-.792 1.154" class="cls-1" data-name="Path 12390" transform="translate(-2 -3.5)"/>
    </g>
    <path id="Path_12391" fill="none" d="M0 0h24v24H0z" data-name="Path 12391"/>
</svg>
