<svg id="Check_Payment_Pen" data-name="Check, Payment, Pen" xmlns="http://www.w3.org/2000/svg" width="24" height="24" viewBox="0 0 24 24">
  <path id="Path_25537" data-name="Path 25537" d="M24,24H0V0H24Z" fill="none"/>
  <path id="Path_25538" data-name="Path 25538" d="M16.062,3A1.72,1.72,0,0,1,18.5,3h0a1.721,1.721,0,0,1,0,2.434l-7.774,7.769a1,1,0,0,1-.707.293H8V11.485a1,1,0,0,1,.293-.707L16.062,3Z" fill="none" stroke="#0c0b31" stroke-linecap="round" stroke-linejoin="round" stroke-width="1.75"/>
  <path id="Path_25539" data-name="Path 25539" d="M15,13.5h2" fill="none" stroke="#0c0b31" stroke-linecap="round" stroke-linejoin="round" stroke-width="1.75"/>
  <path id="Path_25540" data-name="Path 25540" d="M7,17.5H17" fill="none" stroke="#0c0b31" stroke-linecap="round" stroke-linejoin="round" stroke-width="1.75"/>
  <path id="Path_25541" data-name="Path 25541" d="M19,10.5h0a2,2,0,0,1,2,2v7a2,2,0,0,1-2,2H5a2,2,0,0,1-2-2v-7a2,2,0,0,1,2-2H5" fill="none" stroke="#0c0b31" stroke-linecap="round" stroke-linejoin="round" stroke-width="1.75"/>
  <path id="Path_25542" data-name="Path 25542" d="M14.07,5,16.5,7.43" fill="none" stroke="#0c0b31" stroke-linecap="round" stroke-linejoin="round" stroke-width="1.75"/>
  <path id="Path_25543" data-name="Path 25543" d="M10.066,5.566l1.641-1.641a1.216,1.216,0,0,1,1.718,0h0a1.216,1.216,0,0,1,0,1.718L12.284,6.784" fill="none" stroke="#0c0b31" stroke-linecap="round" stroke-linejoin="round" stroke-width="1.75"/>
</svg>
