<svg xmlns="http://www.w3.org/2000/svg" width="306.415" height="189.298" viewBox="0 0 306.415 189.298">
    <defs>
        <linearGradient id="linear-gradient" x1=".344" x2=".622" y1="-.344" y2=".669" gradientUnits="objectBoundingBox">
            <stop offset="0" stop-color="#d4d4d4"/>
            <stop offset="1" stop-color="#fff"/>
        </linearGradient>
        <style>
            .cls-2{fill:#c5c9cc}.cls-3{fill:#808895}.cls-4{fill:#cbcbd8}.cls-5{fill:#fff}.cls-7{fill:#484e5c}
        </style>
    </defs>
    <g id="Group_8841" data-name="Group 8841" transform="translate(-1.206)">
        <g id="Group_8834" data-name="Group 8834">
            <path id="Path_11977" fill="rgba(189,200,214,0.23)" d="M81.854 267.543a150.849 150.849 0 0 1-26.654 1.536c-5.211-.163-10.5-.617-15.352-2.532a27.257 27.257 0 0 1-16.71-21.847 43.107 43.107 0 0 1 .205-9.489 33.047 33.047 0 0 1 2.2-9.65c3.405-7.821 11.178-12.359 16.133-19.036 5.638-7.6 6.521-15.812 5.745-25.211-.851-10.3-3.2-20.769-.926-30.855 1.01-4.481 3.016-8.877 6.465-11.911 8.986-7.9 23.835-3.994 33.819-10.591 11.762-7.772 12.74-27.334 25.9-32.392 6.334-2.434 13.486-.478 19.7 2.237s12.278 6.227 19.02 7c7.786.888 15.448-1.991 23.2-3.162 8.347-1.262 17.137-.47 24.743 3.192s13.9 10.368 16.167 18.5c1.118 4.008 1.265 8.258 2.614 12.194 1.967 5.741 6.276 10.16 11.009 13.771 4.757 3.629 10.14 5.4 14.944 8.757a40.3 40.3 0 0 1 16.808 29.32c.387 4.788-.075 9.628.517 14.4a42.858 42.858 0 0 0 6.844 17.656c2.262 3.523 4.879 6.8 7.247 10.257 3.792 5.532 7 11.714 7.57 18.4s-1.964 13.937-7.6 17.575c-5.323 3.437-12.185 3.1-18.456 2.194-8.06-1.169-16-3.082-24.082-4.1-7.966-1-16.009-.726-24-.392-17.73.742-35.473 1.228-53.219 1.228-12.733.042-25.464-.3-38.2-.349-5.413-.022-10.822.2-16.232.362-5.012.152-9.3 1.19-14.226 2.091q-2.581.463-5.193.847z" data-name="Path 11977" transform="translate(-7.836 -87.413)"/>
            <g id="Group_8825" data-name="Group 8825" transform="translate(19.206 81.742)">
                <g id="Group_8827" data-name="Group 8827">
                    <g id="Group_8832" data-name="Group 8832">
                        <path id="Path_13105" d="M1250.69 803.808c2.468 3.49.432 8.032-2.025 10.587-3.02 3.142-6.09 2.656-7.488 5.435-1.689 3.357 1.906 5.826.031 9.335-1.152 2.157-2.733 1.643-5.024 4.381-2.791 3.335-.055 4.284-2.034 6.724-6.36 7.84-8.908 2.4-12.78 4.462-5.019 2.671-8.377 4.953-10.834 4.419-9.657-2.1-6.682-8.45-11.37-10.9-6.335-3.307-9.43-16.839-5.082-21.608 2.277-2.5 4.527-2.8 4.74-4.88.305-3-4.228-3.874-4.688-7.485-.521-4.095 4.911-6.078 4.1-9.537-.788-3.372-6.365-3.251-6.723-5.66-.542-3.653 11.359-10.194 23.684-9.787 5.893.194 15.495 2.1 17.092 7.007.923 2.836-1.477 4.666-.125 8.329.984 2.663 3.16 4.154 6.041 6.072 2.742 1.827 8.118-3.07 12.485 3.106z" class="cls-2" data-name="Path 13105" transform="translate(-1191.5 -779.279)"/>
                        <path id="Path_13106" d="M1241.742 832.058c1.939-.1 2.927 12.832 1.8 14.528s-3.239 2.947-3.379 4.8.686 34.645 1.37 34.171 6.363-9.069 5.229-11.07-2.418-5.094-2.153-7.711.268-6.342 1-6.251.117 6.51.628 7.754.6 2.218 1.328 2.239.748-6.768 1.864-6.649.358 10.126-.026 11.979-1.7 8.248-2.907 10.6-4.892 4.824-4.982 5.627.5 19.9.5 19.9l-9.643.175s3.562-37.657 2.767-38.911-5.825-11.427-6.9-12.466-1.722-7.38-1.154-7.472.884 6.092 2.067 6.193 1.819-11.964 2.676-11.857-.832 12.516-.37 13.281 3.151 5.359 4.045 5.261-.492-33.869.275-34.249 1.343-.065 1.814 3.469 1.384 11.254 1.914 11.245a2.894 2.894 0 0 0 1.878-1.948c.031-.774-.504-12.596.359-12.638z" class="cls-3" data-name="Path 13106" transform="translate(-1212.007 -809.727)"/>
                    </g>
                    <g id="Group_8833" data-name="Group 8833" transform="translate(197.842 24.909)">
                        <path id="Path_13107" d="M1758.707 908.071c-1.757 2.486-.308 5.72 1.442 7.539 2.15 2.237 4.336 1.891 5.332 3.87 1.2 2.39-1.358 4.148-.023 6.647.821 1.536 1.947 1.17 3.578 3.119 1.988 2.375.039 3.05 1.448 4.787 4.529 5.582 6.343 1.71 9.1 3.178 3.574 1.9 5.964 3.527 7.714 3.146 6.876-1.5 4.758-6.016 8.1-7.759 4.511-2.354 6.714-11.99 3.618-15.386-1.621-1.778-3.223-1.994-3.374-3.475-.218-2.136 3.01-2.758 3.337-5.329.371-2.915-3.5-4.327-2.921-6.79.561-2.4 4.531-2.316 4.787-4.03.386-2.6-8.088-7.259-16.864-6.969-4.2.139-11.033 1.493-12.17 4.99-.657 2.019 1.052 3.322.089 5.93-.7 1.9-2.25 2.958-4.3 4.324-1.955 1.298-5.784-2.189-8.893 2.208z" class="cls-2" data-name="Path 13107" transform="translate(-1757.91 -890.606)"/>
                        <path id="Path_13108" d="M1793.837 920.525c-1.38-.069-2.084 9.137-1.284 10.345s2.306 2.1 2.406 3.416-.488 24.668-.976 24.331-4.531-6.457-3.723-7.882a10.254 10.254 0 0 0 1.533-5.49c-.19-1.863-.191-4.516-.713-4.451s-.084 4.635-.447 5.521-.425 1.579-.946 1.594-.532-4.819-1.327-4.735-.255 7.21.019 8.529 1.207 5.873 2.069 7.55 3.483 3.435 3.547 4.007-.356 14.17-.356 14.17l6.866.125s-2.536-26.814-1.97-27.706 4.148-8.137 4.916-8.876 1.226-5.255.82-5.32-.629 4.337-1.472 4.409-1.295-8.519-1.906-8.443.593 8.911.264 9.456-2.244 3.815-2.881 3.746.351-24.116-.2-24.387-.956-.046-1.291 2.469-.986 8.014-1.363 8.007a2.062 2.062 0 0 1-1.338-1.387c-.013-.551.367-8.967-.247-8.998z" class="cls-3" data-name="Path 13108" transform="translate(-1772.067 -904.624)"/>
                    </g>
                </g>
            </g>
            <g id="Group_8835" data-name="Group 8835">
                <g id="Group_7813" data-name="Group 7813" transform="rotate(117.97 142.884 110.673)">
                    <path id="Path_12601" d="M12.958 77.552a.719.719 0 0 1-.606-.226A47.185 47.185 0 0 1 .094 42.775c.283-4.3 1.644-12.057 7.583-15.693a12.466 12.466 0 0 1 1.364-.721c-.009-.059-.015-.118-.023-.176-.9-7.163-.326-12.595 1.815-17.1C13.622 3.226 19.447-.489 25 .052a.719.719 0 1 1-.14 1.431C19.9 1 14.665 4.38 12.131 9.705c-2 4.206-2.545 9.332-1.709 16.119a18.367 18.367 0 0 1 7.605-.639 14.6 14.6 0 0 1 8.572 3.5 8.52 8.52 0 0 1 2.48 8.908 7.013 7.013 0 0 1-4.931 4.228 10.325 10.325 0 0 1-8.921-1.754c-3.89-3.111-5.316-8.153-5.972-12.218-.279.14-.556.292-.828.458-5.387 3.3-6.635 10.539-6.9 14.562a45.713 45.713 0 0 0 11.88 33.48.72.72 0 0 1-.449 1.2zm-2.337-50.277c.59 3.872 1.879 8.771 5.5 11.668a8.967 8.967 0 0 0 7.643 1.491 5.615 5.615 0 0 0 3.966-3.35 7.058 7.058 0 0 0-2.116-7.349 13.228 13.228 0 0 0-7.751-3.121 16.759 16.759 0 0 0-7.242.661z" class="cls-4" data-name="Path 12601"/>
                </g>
                <g id="Group_8838" data-name="Group 8838" transform="rotate(-150 75.946 67.57)">
                    <path id="Path_12601-2" d="M7.2 43.111a.4.4 0 0 1-.337-.125A26.231 26.231 0 0 1 .052 23.778c.157-2.39.914-6.7 4.216-8.724a6.934 6.934 0 0 1 .758-.4c0-.033-.008-.065-.013-.1-.5-3.982-.181-7 1.009-9.5C7.573 1.793 10.81-.272 13.9.029a.4.4 0 1 1-.078.8C11.06.554 8.152 2.435 6.744 5.4c-1.112 2.338-1.415 5.187-.95 8.961A10.212 10.212 0 0 1 10.021 14a8.117 8.117 0 0 1 4.765 1.945 4.736 4.736 0 0 1 1.379 4.955 3.9 3.9 0 0 1-2.741 2.35 5.74 5.74 0 0 1-4.959-.975c-2.163-1.73-2.955-4.532-3.32-6.792-.155.078-.309.163-.46.255C1.69 17.57 1 21.595.85 23.831a25.412 25.412 0 0 0 6.6 18.611.4.4 0 0 1-.25.669zM5.9 15.162c.328 2.153 1.045 4.875 3.06 6.486a4.985 4.985 0 0 0 4.249.829 3.122 3.122 0 0 0 2.2-1.862 3.924 3.924 0 0 0-1.176-4.085 7.354 7.354 0 0 0-4.309-1.735 9.317 9.317 0 0 0-4.024.367z" class="cls-4" data-name="Path 12601"/>
                </g>
                <g id="Group_8789" data-name="Group 8789" transform="rotate(171 97.718 66.748)">
                    <g id="Group_7815" data-name="Group 7815" transform="translate(2.569)">
                        <path id="Path_12603" d="M.977 8.775a.908.908 0 0 1-.324-.026.882.882 0 0 1-.623-1.078L1.91.652a.881.881 0 0 1 1.7.456L1.731 8.126a.881.881 0 0 1-.754.649z" class="cls-4" data-name="Path 12603"/>
                    </g>
                    <g id="Group_7816" data-name="Group 7816" transform="translate(0 2.569)">
                        <path id="Path_12604" d="M7.995 3.636a.881.881 0 0 1-.324-.024L.653 1.731A.88.88 0 1 1 1.109.03l7.018 1.88a.881.881 0 0 1-.133 1.726z" class="cls-4" data-name="Path 12604"/>
                    </g>
                </g>
                <g id="Group_7820" data-name="Group 7820" transform="rotate(117.97 101.928 80.989)">
                    <g id="Group_7818" data-name="Group 7818" transform="translate(2.569)">
                        <path id="Path_12605" d="M.976 8.775a.879.879 0 0 1-.945-1.1L1.91.653a.88.88 0 1 1 1.7.456L1.731 8.127a.881.881 0 0 1-.755.648z" class="cls-4" data-name="Path 12605"/>
                    </g>
                    <g id="Group_7819" data-name="Group 7819" transform="translate(0 2.57)">
                        <path id="Path_12606" d="M7.994 3.636a.873.873 0 0 1-.323-.024L.652 1.731A.88.88 0 0 1 1.108.03l7.019 1.88a.881.881 0 0 1-.133 1.726z" class="cls-4" data-name="Path 12606"/>
                    </g>
                </g>
                <g id="Group_8837" data-name="Group 8837" transform="rotate(117.97 -43.578 85.946)">
                    <g id="Group_7818-2" data-name="Group 7818" transform="translate(2.569)">
                        <path id="Path_12605-2" d="M.976 8.775a.879.879 0 0 1-.945-1.1L1.91.653a.88.88 0 1 1 1.7.456L1.731 8.127a.881.881 0 0 1-.755.648z" class="cls-4" data-name="Path 12605"/>
                    </g>
                    <g id="Group_7819-2" data-name="Group 7819" transform="translate(0 2.57)">
                        <path id="Path_12606-2" d="M7.994 3.636a.873.873 0 0 1-.323-.024L.652 1.731A.88.88 0 0 1 1.108.03l7.019 1.88a.881.881 0 0 1-.133 1.726z" class="cls-4" data-name="Path 12606"/>
                    </g>
                </g>
                <g id="Group_7822" data-name="Group 7822" transform="rotate(117.97 4.09 99.48)">
                    <path id="Path_12608" d="M6.313 6.742a5.812 5.812 0 0 1-.878.028A5.691 5.691 0 0 1 .006.841a.88.88 0 0 1 1.758.078 3.923 3.923 0 0 0 7.836.344.88.88 0 1 1 1.759.077 5.646 5.646 0 0 1-1.836 3.943 5.643 5.643 0 0 1-3.21 1.459z" class="cls-4" data-name="Path 12608"/>
                </g>
                <g id="Group_8788" data-name="Group 8788" transform="rotate(-130.02 114.737 -1.135)">
                    <path id="Path_12608-2" d="M6.313 6.741a5.8 5.8 0 0 1-.878.028A5.691 5.691 0 0 1 .006.841a.88.88 0 0 1 1.758.078 3.923 3.923 0 0 0 7.836.344.88.88 0 1 1 1.759.077 5.646 5.646 0 0 1-1.836 3.943 5.643 5.643 0 0 1-3.21 1.458z" class="cls-4" data-name="Path 12608"/>
                </g>
                <g id="Group_8836" data-name="Group 8836" transform="rotate(132 14.914 41.334)">
                    <path id="Path_12608-3" d="M6.313 6.741a5.8 5.8 0 0 1-.878.028A5.691 5.691 0 0 1 .006.841a.88.88 0 0 1 1.758.078 3.923 3.923 0 0 0 7.836.344.88.88 0 1 1 1.759.077 5.646 5.646 0 0 1-1.836 3.943 5.643 5.643 0 0 1-3.21 1.458z" class="cls-4" data-name="Path 12608"/>
                </g>
                <g id="Group_8790" data-name="Group 8790" transform="rotate(117.97 113.886 121.298)">
                    <path id="Path_12610" d="M5.081 7.9h-.013a.881.881 0 0 1-.815-.388L.149 1.37A.882.882 0 0 1 .991.007l6.37.8a.881.881 0 0 1 .7 1.217L5.8 7.37a.883.883 0 0 1-.719.53zM2.684 2l2.127 3.182 1.175-2.769z" class="cls-4" data-name="Path 12610"/>
                </g>
                <g id="Group_7826" data-name="Group 7826" transform="rotate(117.97 52.336 55.989)">
                    <path id="Path_12612" d="M5.145 9.255a4.641 4.641 0 1 1 4.11-5.117 4.646 4.646 0 0 1-4.11 5.117zm-.816-7.478A2.881 2.881 0 1 0 7.5 4.329a2.885 2.885 0 0 0-3.171-2.552z" class="cls-4" data-name="Path 12612"/>
                </g>
                <g id="Group_8603" data-name="Group 8603" transform="rotate(117.97 106.455 106.956)">
                    <path id="Path_12985" d="M3.655 5.639a.88.88 0 0 1-.822-.375L.156 1.381a.88.88 0 1 1 1.45-1l2.677 3.883a.88.88 0 0 1-.628 1.375z" class="cls-4" data-name="Path 12985"/>
                </g>
            </g>
        </g>
        <g id="Group_8839" data-name="Group 8839" transform="translate(75.541 44.181)">
            <path id="Path_13109" d="M1522.247 971.475a4.766 4.766 0 0 0-.624 1.8c0 .468-.069 2.253 0 2.461a7.4 7.4 0 0 0 2.981.5 2.474 2.474 0 0 0 1.681-1.075 14.884 14.884 0 0 0 0-3.171c-.173-.307-4.038-.515-4.038-.515z" class="cls-5" data-name="Path 13109" transform="translate(-1441.091 -840.636)"/>
            <path id="Path_13110" d="M1488.9 973.2a7.119 7.119 0 0 0-.082 2.082 5.023 5.023 0 0 1 .456 1.464c0 .569 4.117.553 4.28.2a5.347 5.347 0 0 0 .152-1.683c-.016-.374.352-1.066.238-1.441s-.586-1.09-1.025-1.188a34.534 34.534 0 0 0-4.019.566z" class="cls-5" data-name="Path 13110" transform="translate(-1418.197 -841.438)"/>
            <path id="Path_13111" d="M1463.563 775.491c-.835 3.065-1.616 12.707-1.059 16.609s2.062 14.6 2.062 19.34 1.635 12.459 2.41 15.278 1.893 9.034 2.5 9.173a6.116 6.116 0 0 0 3.335.333c1.778-.333 2.278-.778 2.306-1.5s-1.25-8.807-1.445-10.753-1.5-10.086-1.556-11.169 1.056-4.918 1.167-7.168.695-10.308 1.028-11.392 1.139-6.28 1.5-6.307 2.418 6.279 2.724 8.308 1.861 15.226 2.25 16-.139 5.418-.389 7.141-.317 15.22-.028 15.554a5.329 5.329 0 0 0 2.8 1.023c1 0 2.624-.423 2.869-.934s-.089-2.379.178-3.291 2.757-10.451 2.889-12.758-.528-11.139-.627-13.314.923-8.766 1.154-10.513 1.022-9.03 1.022-10.743-.33-6.954-1.351-8.14-25.739-.777-25.739-.777z" class="cls-3" data-name="Path 13111" transform="translate(-1399.734 -703.851)"/>
            <path id="Path_13112" d="M1598.882 671.189c.417-.284 1.1-.814 1.212-1.183a3.27 3.27 0 0 1 1.017-1.591 18.261 18.261 0 0 1 1.908-.691c.455-.151 1.591-.814 1.8-.909s.88-.218 1.06.142a1.05 1.05 0 0 1-.53 1.259c-.474.18-1.591.54-1.487.786a1.965 1.965 0 0 0 2.017.095c.843-.417 2.3-.786 2.642-.975a24.461 24.461 0 0 1 3.1-1.211.708.708 0 0 1 .636.354c.115.239.867-.346 1.1.051s-.311.621-.339.744.3.253.311.549-.433.462-1.134.78-3.879 2.323-4.383 2.588a7.439 7.439 0 0 1-2.825.933c-1.286.113-2.85.176-3.216.643a12.328 12.328 0 0 1-1.452 1.774c-.227.075-1.678.3-2.031-.568s.594-3.57.594-3.57z" class="cls-5" data-name="Path 13112" transform="translate(-1494.547 -628.005)"/>
            <path id="Path_13113" d="M1386.007 663.822c-.417-.284-1.1-.814-1.212-1.183a3.274 3.274 0 0 0-1.018-1.591 18.232 18.232 0 0 0-1.907-.691c-.455-.152-1.591-.814-1.8-.909s-.881-.218-1.061.142a1.051 1.051 0 0 0 .531 1.259c.473.18 1.591.54 1.486.786a1.965 1.965 0 0 1-2.017.094c-.842-.416-2.3-.785-2.641-.975a24.479 24.479 0 0 0-3.1-1.211.706.706 0 0 0-.635.354c-.115.239-.867-.347-1.1.051s.311.621.34.744-.3.253-.311.549.433.462 1.134.78 3.879 2.323 4.383 2.588a7.436 7.436 0 0 0 2.825.933c1.286.113 2.85.177 3.216.643s.631 1.047.858 1.122 1.678.3 2.031-.567a7.718 7.718 0 0 0-.002-2.918z" class="cls-5" data-name="Path 13113" transform="translate(-1336.355 -622.865)"/>
            <path id="Path_13114" d="M1437.766 628.4c-1.748.209-8.626 1.053-9.835 3.573s-2.282 8.544-2.848 10.239-1.667 5.68-2.147 5.68-8.392-6.132-8.562-6.132.2 1.469-.734 2.43-1.611.706-1.441 1.187 4.464 5.651 5.595 7.149 5.96 5.454 7.176 5.4 5.313-6.1 5.624-6.1-.384 9.636-.919 11.676-2.868 10.942-2.237 11.72 7.383 3.087 12.63 3.232 15.882-1.787 16.077-3.148-2.185-8.853-2.185-11.865-.671-13.723-.232-13.791 3.374 8.165 6.242 8 8.773-6.141 9.414-7.288 1.89-2.362 1.552-2.53-1.552-1.282-1.552-2.126.1-1.923-.27-1.754-2.8 2.328-3.813 2.9-2.632 1.485-2.834 1.147-3.307-6.174-3.542-7.355-1.788-9.11-3.1-9.818-7.442-2.9-8.5-2.9-9.559.474-9.559.474z" class="cls-2" data-name="Path 13114" transform="translate(-1364.749 -600.932)"/>
            <path id="Path_13115" fill="url(#linear-gradient)" d="M1496.477 621c0 .817.435 1.942.109 2.178s1.543 5.3 3.358 5.409 5.046-4.937 5.119-5.5a13.939 13.939 0 0 0-.218-2.65c-.055-.075-8.368.563-8.368.563z" data-name="Path 13115" transform="translate(-1423.568 -595.711)"/>
            <path id="Path_13116" d="M1486.706 573.381c-.316-2.185-1.007-4.239-.538-6.375a6.068 6.068 0 0 1 5.165-5.067c3.163-.329 4.67.877 6.231 2.89s1.356 8.38.945 8.791a11.8 11.8 0 0 1-6.1 1.725 10.626 10.626 0 0 1-5.703-1.964z" class="cls-7" data-name="Path 13116" transform="translate(-1416.265 -554.865)"/>
            <path id="Path_13117" d="M1488.317 591.753s.629 3.444 1.074 3.815 2.805 2.259 4.31 2.185 4.578-2.222 4.764-3.444.006-3.6.12-3.555.952.136 1.11-1.156.114-3.309-.385-3.331-.748 1.858-1.02 1.858-.305-2.739-.792-3.34-3.721-1.231-4.179-1.231-2.548 2.72-5.239 3.149c0 0 .544 2.147.143 2.176s-.944-1.718-1.317-1.718-.458 1.775-.286 2.949.83 1.832 1.059 1.832.39-.348.638-.189z" class="cls-5" data-name="Path 13117" transform="translate(-1416.631 -569.984)"/>
            <path id="Path_13118" d="M1525.021 983.329c.374.553.318 1.964 1.051 3.321a8.906 8.906 0 0 1 1.328 3.5 3.113 3.113 0 0 1-2.38 2.767 7.464 7.464 0 0 1-3.695-.069 2.461 2.461 0 0 1-1.549-2.048 22.647 22.647 0 0 0 0-3.39 6.335 6.335 0 0 1-.332-1.882 6.462 6.462 0 0 1 .166-2.393 3.835 3.835 0 0 1 2.588-1.121 4.3 4.3 0 0 1 2.823 1.315z" class="cls-7" data-name="Path 13118" transform="translate(-1439.574 -847.989)"/>
            <path id="Path_13119" d="M1483.391 983.329c-.374.553-.318 1.964-1.051 3.321a8.915 8.915 0 0 0-1.329 3.5 3.114 3.114 0 0 0 2.38 2.767 7.461 7.461 0 0 0 3.694-.069 2.461 2.461 0 0 0 1.551-2.048 22.482 22.482 0 0 1 0-3.39 6.36 6.36 0 0 0 .331-1.882 6.464 6.464 0 0 0-.166-2.393 3.836 3.836 0 0 0-2.588-1.121 4.3 4.3 0 0 0-2.822 1.315z" class="cls-7" data-name="Path 13119" transform="translate(-1412.777 -847.989)"/>
            <g id="Bookmark_Favorite.1" data-name="Bookmark, Favorite.1" transform="rotate(36 13.878 42.723)">
                <path id="Path_4023" d="M3.937 0h16.931a3.936 3.936 0 0 1 3.937 3.937v31.5l-12.387-6.444L0 35.436V3.937A3.936 3.936 0 0 1 3.937 0z" class="cls-3" data-name="Path 4023" transform="translate(11.222 5.906)"/>
                <path id="Path_4024" fill="none" d="M0 0h47.249v47.249H0z" data-name="Path 4024"/>
            </g>
            <path id="Path_13140" d="M1385.172 663.822c-.417-.284-1.1-.814-1.212-1.183a3.273 3.273 0 0 0-1.018-1.591 18.231 18.231 0 0 0-1.907-.691c-.455-.152-1.591-.814-1.8-.909s-.881-.218-1.061.142a1.051 1.051 0 0 0 .531 1.259c.473.18 1.591.54 1.486.786s-.113 1.42-.956 1-1.454 2.79-.168 2.9 2.85.177 3.216.643.63 1.047.858 1.122 1.678.3 2.031-.567a7.72 7.72 0 0 0 0-2.911z" class="cls-5" data-name="Path 13140" transform="translate(-1335.519 -622.865)"/>
        </g>
    </g>
</svg>
