<svg xmlns="http://www.w3.org/2000/svg" width="40" height="40" viewBox="0 0 40 40">
  <g id="Page-2" transform="translate(0.691 5.691)">
    <g id="Artboard" transform="translate(-1 -6)">
      <g id="Group-53">
        <rect id="Rectangle" width="40" height="40" transform="translate(0.309 0.309)" fill="none"/>
        <g id="Group-48" transform="translate(2.083 5.817)">
          <g id="Group-47" transform="translate(0 0)">
            <path id="Path-67" d="M14.358,8.979l6.61,5.681a1.873,1.873,0,0,0,2.508-.265q1.19-1.107,0-3.011-7.03-7.071-8.714-8.768c-1.684-1.7-6.545-4.5-11.834.783s-2,9.623-1,11a22.063,22.063,0,0,0,3.3,3.367" transform="translate(0 -0.063)" fill="#ffd02f" stroke="#050038" stroke-linecap="round" stroke-linejoin="round" stroke-width="2" fill-rule="evenodd"/>
            <path id="Path-45" d="M21.6,5.023Q27.206,0,31.456,0a9.241,9.241,0,0,1,6.025,2.234,8.307,8.307,0,0,1,2.348,8.711c-2.248,6.23-13.924,17.146-14.914,18-1.364,1.175-2.6,2.463-4.056,1.212A1.875,1.875,0,0,1,20.6,27.3l4.315-4.834" transform="translate(-3.765)" fill="none" stroke="#050038" stroke-linecap="round" stroke-linejoin="round" stroke-width="2" fill-rule="evenodd"/>
          </g>
          <path id="Path-63" d="M19.879,31.313q-2.178,1.735-3.75.453t-.287-3.173l5.569-5.676" transform="translate(-2.864 -4.3)" fill="none" stroke="#050038" stroke-linecap="round" stroke-linejoin="round" stroke-width="2" fill-rule="evenodd"/>
          <path id="Path-64" d="M15.114,27.862a2.616,2.616,0,0,1-3.6.265q-1.337-1.156,0-3.189l5.5-5.1" transform="translate(-2.035 -3.723)" fill="none" stroke="#050038" stroke-linecap="round" stroke-linejoin="round" stroke-width="2" fill-rule="evenodd"/>
          <path id="Path-65" d="M11.054,22.923a2.893,2.893,0,0,1-3.876,0A2.506,2.506,0,0,1,7,19.757q.6-1.012,8.579-8.782" transform="translate(-1.224 -2.059)" fill="none" stroke="#050038" stroke-linecap="round" stroke-linejoin="round" stroke-width="2" fill-rule="evenodd"/>
        </g>
      </g>
    </g>
  </g>
</svg>
