<svg xmlns="http://www.w3.org/2000/svg" id="Photo_Image" width="24" height="24" viewBox="0 0 24 24">
    <defs>
        <style>
            .cls-1{fill:none;stroke:#2a2f33;stroke-linecap:round;stroke-linejoin:round;stroke-width:1.5px}
        </style>
    </defs>
    <g id="Group_798" transform="translate(2.003 3)">
        <path id="Path_9681" d="M20 21H4a2 2 0 0 1-2-2V5a2 2 0 0 1 2-2h16a2 2 0 0 1 2 2v14a2 2 0 0 1-2 2z" class="cls-1" transform="translate(-2.003 -3)"/>
        <path id="Path_9682" d="M9.414 7.586a2 2 0 1 1-2.828 0 2 2 0 0 1 2.828 0" class="cls-1" transform="translate(-2.003 -3)"/>
        <path id="Path_9683" d="M22 16l-4.219-3.375a1 1 0 0 0-1.406.156l-3.336 4.17a1 1 0 0 1-1.406.156l-1.868-1.495a1 1 0 0 0-1.393.141L4 21" class="cls-1" transform="translate(-2.003 -3)"/>
    </g>
    <path id="Path_9684" fill="none" d="M0 0h24v24H0z"/>
</svg>
