<svg xmlns="http://www.w3.org/2000/svg" width="110" height="109.669" viewBox="0 0 110 109.669">
    <g>
        <path fill="rgba(12,11,49,0.8)" d="M0 0H40V40H0z" transform="translate(-889.484 -783.362) translate(923.919 817.95)"/>
        <g>
            <path fill="none" d="M0 0h110v109.669H0z" transform="translate(-889.484 -783.362) translate(889.484 783.362)"/>
            <path fill="#fff" d="M37.135 74.046a36.986 36.986 0 1 1 34.216-51.435 37.057 37.057 0 0 1-34.216 51.435zM31.2 24.486a3.1 3.1 0 0 0-3.1 3.093v18.885a3.1 3.1 0 0 0 3.1 3.091 3.052 3.052 0 0 0 1.571-.435l16.017-9.445a3.079 3.079 0 0 0 0-5.31l-16.022-9.444a3.053 3.053 0 0 0-1.566-.435z" transform="translate(-889.484 -783.362) translate(889.484 783.362) translate(17.865 17.811)"/>
        </g>
    </g>
</svg>
