<svg id="Play" xmlns="http://www.w3.org/2000/svg" width="40" height="40" viewBox="0 0 40 40">
  <path id="Path_13028" data-name="Path 13028" d="M0,0H40V40H0Z" fill="none"/>
  <path id="Subtraction_8" data-name="Subtraction 8" d="M12,24A12,12,0,0,1,7.329.943a12,12,0,0,1,9.342,22.114A11.926,11.926,0,0,1,12,24ZM10.081,7.936a1,1,0,0,0-1,1V15.06a1,1,0,0,0,1,1,.984.984,0,0,0,.508-.141l5.176-3.061a1,1,0,0,0,0-1.721L10.588,8.077A.984.984,0,0,0,10.081,7.936Z" transform="translate(8 8)" fill="#fff"/>
</svg>
