<?xml version="1.0" encoding="utf-8"?>
<!-- Generator: Adobe Illustrator 24.0.1, SVG Export Plug-In . SVG Version: 6.00 Build 0)  -->
<svg version="1.1" id="Arrow_Rotate.1" xmlns="http://www.w3.org/2000/svg" xmlns:xlink="http://www.w3.org/1999/xlink" x="0px"
	 y="0px" viewBox="0 0 24 24" style="enable-background:new 0 0 24 24;" xml:space="preserve">
<style type="text/css">
	.st0{fill:#3f53d9;}
	.st1{fill:none;}
</style>
<g id="Group_14" transform="translate(4 4)">
	<path class="st0" d="M15.7,12.2c-1.6,2.9-4.6,4.6-7.7,4.6c-1.4,0-2.8-0.3-4.2-1.1C1,14.1-0.8,11.2-0.8,8c0-0.4,0.3-0.8,0.8-0.8
		S0.8,7.6,0.8,8c0,2.7,1.5,5.1,3.8,6.4c1.7,0.9,3.7,1.1,5.5,0.6s3.4-1.8,4.3-3.5c1.9-3.5,0.6-7.9-2.9-9.8C8.3-0.1,4.5,0.8,2.4,3.4H4
		c0.4,0,0.8,0.3,0.8,0.8c0,0.4-0.3,0.8-0.8,0.8l-3.5,0C0.3,4.9,0.1,4.8,0,4.7c-0.1-0.1-0.2-0.3-0.2-0.5V0.6c0-0.4,0.3-0.8,0.8-0.8
		c0.4,0,0.8,0.3,0.8,0.8v1.8c2.6-3.2,7.2-4.1,10.9-2.1C16.4,2.6,18,7.9,15.7,12.2z"/>
</g>
<path id="Path_152" class="st1" d="M24,0H0v24h24V0z"/>
</svg>
