<svg xmlns="http://www.w3.org/2000/svg" id="Settings.1" width="21.818" height="21.818" viewBox="0 0 21.818 21.818">
    <defs>
        <style>
            .cls-2{fill:none;stroke:#0c0b31;stroke-linecap:round;stroke-linejoin:round;stroke-width:1.5px}
        </style>
    </defs>
    <path id="Path_2518" fill="none" d="M0 0h21.818v21.818H0z"/>
    <path id="Path_2519" d="M3 5.5h2.791" class="cls-2" transform="translate(-0.273 -0.5)"/>
    <path id="Path_2520" d="M9.936 3.666a2.273 2.273 0 1 1-3.214 0 2.273 2.273 0 0 1 3.214 0" class="cls-2" transform="translate(-0.551 -0.273)"/>
    <path id="Path_2521" d="M11.06 5.5h9.04" class="cls-2" transform="translate(-1.005 -0.5)"/>
    <path id="Path_2522" d="M9.936 3.666a2.273 2.273 0 1 1-3.214 0 2.273 2.273 0 0 1 3.214 0" class="cls-2" transform="translate(-0.551 -0.273)"/>
    <path id="Path_2523" d="M20.722 12H17.94" class="cls-2" transform="translate(-1.631 -1.091)"/>
    <path id="Path_2524" d="M12.036 12H3" class="cls-2" transform="translate(-0.273 -1.091)"/>
    <path id="Path_2525" d="M16.824 10.166a2.273 2.273 0 1 1-3.214 0 2.273 2.273 0 0 1 3.214 0" class="cls-2" transform="translate(-1.177 -0.864)"/>
    <path id="Path_2526" d="M11.06 18.5h9.04" class="cls-2" transform="translate(-1.005 -1.682)"/>
    <path id="Path_2527" d="M3 18.5h2.782" class="cls-2" transform="translate(-0.273 -1.682)"/>
    <path id="Path_2528" d="M9.936 16.666a2.273 2.273 0 1 1-3.214 0 2.273 2.273 0 0 1 3.214 0" class="cls-2" transform="translate(-0.551 -1.455)"/>
</svg>
