<svg xmlns="http://www.w3.org/2000/svg" id="Share.1" width="24" height="24" viewBox="0 0 24 24">
    <defs>
        <style>
            .cls-2{fill:none;stroke:#0c0b31;stroke-linecap:round;stroke-linejoin:round;stroke-width:1.5px}
        </style>
    </defs>
    <path id="Path_6717" fill="none" d="M0 0h24v24H0z" data-name="Path 6717"/>
    <path id="Path_6718" d="M8.553 10.114a2.667 2.667 0 1 1-3.772 0 2.667 2.667 0 0 1 3.772 0" class="cls-2" data-name="Path 6718"/>
    <path id="Path_6719" d="M19.219 4.781a2.667 2.667 0 1 1-3.772 0 2.667 2.667 0 0 1 3.772 0" class="cls-2" data-name="Path 6719"/>
    <path id="Path_6720" d="M19.219 15.447a2.667 2.667 0 1 1-3.772 0 2.667 2.667 0 0 1 3.772 0" class="cls-2" data-name="Path 6720"/>
    <path id="Path_6721" d="M9.04 10.81l5.92-2.96" class="cls-2" data-name="Path 6721"/>
    <path id="Path_6722" d="M9.04 13.19l5.92 2.96" class="cls-2" data-name="Path 6722"/>
</svg>
