<svg xmlns="http://www.w3.org/2000/svg" id="Сoupon_Discount.1" width="24" height="24" viewBox="0 0 24 24">
    <defs>
        <style>
            .cls-1,.cls-2{fill:none}.cls-2{stroke:#484e5c;stroke-linecap:round;stroke-linejoin:round;stroke-width:1.5px}
        </style>
    </defs>
    <path id="Path_11314" d="M0 0h24v24H0z" class="cls-1"/>
    <path id="Path_11315" d="M0 0h24v24H0z" class="cls-1"/>
    <path id="Path_11319" d="M15.807 8.193a.371.371 0 1 1-.525 0 .371.371 0 0 1 .525 0" class="cls-2"/>
    <path id="Path_11320" d="M13.512 4H17.9A2.1 2.1 0 0 1 20 6.1v4.385a2.105 2.105 0 0 1-.616 1.487l-8.41 8.41a2.1 2.1 0 0 1-2.973 0L3.616 16a2.1 2.1 0 0 1 0-2.973l8.41-8.41A2.1 2.1 0 0 1 13.512 4z" class="cls-2"/>
</svg>
