<svg id="Favorite" xmlns="http://www.w3.org/2000/svg" width="48.673" height="48.673" viewBox="0 0 48.673 48.673">
  <path id="Path_11725" data-name="Path 11725" d="M0,0H48.673V48.673H0Z" fill="rgba(0,0,0,0)"/>
  <path id="Path_11726" data-name="Path 11726" d="M21.863,34.328l8.746,4.644A2.326,2.326,0,0,0,33.975,36.5l-1.67-9.838L39.383,19.7a2.351,2.351,0,0,0-1.286-4l-9.777-1.436L23.947,5.308a2.311,2.311,0,0,0-4.163,0l-4.374,8.955L5.633,15.7a2.352,2.352,0,0,0-1.286,4l7.078,6.963L9.755,36.5a2.325,2.325,0,0,0,3.367,2.472l8.746-4.644Z" transform="translate(2.472 2.714)" fill="none" stroke="#536b88" stroke-linecap="round" stroke-linejoin="round" stroke-width="4"/>
</svg>
