<svg xmlns="http://www.w3.org/2000/svg" width="24" height="24" viewBox="0 0 24 24">
  <g id="ok" transform="translate(-1513.643 -1097.5)">
    <rect id="Rectangle_8010" data-name="Rectangle 8010" width="24" height="24" transform="translate(1513.643 1097.5)" fill="rgba(255,255,255,0)"/>
    <path id="Path_1358" data-name="Path 1358" d="M1532.062,1105.44l-.561-.436a.427.427,0,0,0-.6.074l-6.282,8.06a.376.376,0,0,1-.568.039l-2.57-2.513a.428.428,0,0,0-.6.007l-.5.507a.428.428,0,0,0,.007.6l3.821,3.735a.374.374,0,0,0,.568-.038l7.356-9.44a.429.429,0,0,0-.074-.6Z" transform="translate(-0.736 -0.659)" fill="#0c0b31" opacity="0.702"/>
  </g>
</svg>
