<svg id="Group_11342" data-name="Group 11342" xmlns="http://www.w3.org/2000/svg" width="40" height="40" viewBox="0 0 40 40">
  <rect id="Rectangle_1866" data-name="Rectangle 1866" width="40" height="40" rx="20" fill="rgba(63,83,217,0.15)"/>
  <g id="Telegram" transform="translate(8 8)">
    <g id="Group_16400" data-name="Group 16400" transform="translate(2.811 5.816)">
      <path id="Path_29499" data-name="Path 29499" d="M11.8,16.906,9.73,18.915a.666.666,0,0,1-1.1-.284L7.252,14.1" transform="translate(-2.811 -5.816)" fill="none" stroke="#3f53d9" stroke-linecap="round" stroke-linejoin="round" stroke-width="1.5"/>
      <path id="Path_29500" data-name="Path 29500" d="M14.1,10.927l-3.917,3.535a.843.843,0,0,0,.066,1.305l5.378,3.973a.9.9,0,0,0,1.422-.54L19.694,6.753a.775.775,0,0,0-1.037-.884L3.142,11.853a.516.516,0,0,0,.032.975L7.251,14.1" transform="translate(-2.811 -5.816)" fill="none" stroke="#3f53d9" stroke-linecap="round" stroke-linejoin="round" stroke-width="1.5"/>
    </g>
    <path id="Path_29501" data-name="Path 29501" d="M0,0H24V24H0Z" transform="translate(0 24) rotate(-90)" fill="none"/>
  </g>
</svg>
