<svg xmlns="http://www.w3.org/2000/svg" width="24.354" height="24.354" viewBox="0 0 24.354 24.354">
  <g id="fullscreen" transform="translate(5.179 4.541)">
    <path id="Path_19917" data-name="Path 19917" d="M0,0H24.354V24.354H0Z" transform="translate(-5.179 -4.541)" fill="none"/>
    <g id="delete" transform="translate(-4.25 -2.424)">
      <path id="Path_19561" data-name="Path 19561" d="M10.106,1.888a.888.888,0,1,1,1.777,0v.888H18.1a.888.888,0,1,1,0,1.777H3.888a.888.888,0,0,1,0-1.777h6.218ZM9.218,5.442a.888.888,0,0,0-.888.888v7.995a.888.888,0,0,0,1.777,0V6.33A.888.888,0,0,0,9.218,5.442Zm2.665.888a.888.888,0,0,1,1.777,0v7.995a.888.888,0,0,1-1.777,0Z" transform="translate(0)" fill="#fff"/>
      <path id="Path_19562" data-name="Path 19562" d="M5,6.888a.888.888,0,0,1,1.777,0v10.66H15.66V6.888a.888.888,0,1,1,1.777,0V18.436a.888.888,0,0,1-.888.888H5.888A.888.888,0,0,1,5,18.436Z" transform="translate(-0.223 -0.558)" fill="#fff"/>
    </g>
  </g>
</svg>
