<svg xmlns="http://www.w3.org/2000/svg" width="22.878" height="18.589" viewBox="0 0 22.878 18.589">
    <g>
        <path fill="#fff" d="M22.878 50.2a9.779 9.779 0 0 1-2.7.741 4.664 4.664 0 0 0 2.063-2.592 9.373 9.373 0 0 1-2.974 1.135 4.69 4.69 0 0 0-8.113 3.207 4.829 4.829 0 0 0 .109 1.07 13.276 13.276 0 0 1-9.668-4.906 4.692 4.692 0 0 0 1.441 6.269 4.632 4.632 0 0 1-2.119-.578v.054a4.712 4.712 0 0 0 3.758 4.609 4.681 4.681 0 0 1-1.23.154 4.147 4.147 0 0 1-.888-.08A4.735 4.735 0 0 0 6.94 62.55a9.424 9.424 0 0 1-5.815 2A8.785 8.785 0 0 1 0 64.484a13.2 13.2 0 0 0 7.2 2.1 13.258 13.258 0 0 0 13.35-13.347c0-.207-.007-.408-.017-.606a9.357 9.357 0 0 0 2.345-2.431z" transform="translate(0 -48)"/>
    </g>
</svg>
