<svg xmlns="http://www.w3.org/2000/svg" id="Video_Movies.11" width="18" height="18" data-name="Video, Movies.11" viewBox="0 0 18 18">
    <defs>
        <style>
            .cls-1{fill:none;stroke:#4264fb;stroke-linecap:round;stroke-linejoin:round;stroke-width:1.5px}
        </style>
    </defs>
    <g id="Group_1038" data-name="Group 1038" transform="translate(2.25 4.687)">
        <path id="Path_12425" d="M10.594 14.875H4.688A1.687 1.687 0 0 1 3 13.188v-5.25A1.687 1.687 0 0 1 4.688 6.25h5.906a1.687 1.687 0 0 1 1.688 1.687v5.25a1.687 1.687 0 0 1-1.688 1.688z" class="cls-1" data-name="Path 12425" transform="translate(-3 -6.25)"/>
        <path id="Path_12426" d="M15.375 11.722l2.846 2.29a.843.843 0 0 0 1.373-.657V8.443a.843.843 0 0 0-1.373-.657l-2.846 2.291" class="cls-1" data-name="Path 12426" transform="translate(-6.094 -6.587)"/>
    </g>
    <path id="Path_12429" fill="none" d="M0 0h18v18H0z" data-name="Path 12429"/>
</svg>
