<svg xmlns="http://www.w3.org/2000/svg" id="Video_Movies.11" width="11.414" height="11.414" data-name="Video, Movies.11" viewBox="0 0 11.414 11.414">
    <defs>
        <style>
            .cls-1{fill:none;stroke:#fff;stroke-linecap:round;stroke-linejoin:round}
        </style>
    </defs>
    <g id="Group_1038" data-name="Group 1038" transform="translate(1.427 2.972)">
        <path id="Path_12425" d="M7.815 11.719H4.07A1.07 1.07 0 0 1 3 10.649V7.32a1.07 1.07 0 0 1 1.07-1.07h3.745a1.07 1.07 0 0 1 1.07 1.07v3.329a1.07 1.07 0 0 1-1.07 1.07z" class="cls-1" data-name="Path 12425" transform="translate(-3 -6.25)"/>
        <path id="Path_12426" d="M15.375 10.213l1.8 1.452a.535.535 0 0 0 .87-.417V8.134a.535.535 0 0 0-.87-.417l-1.8 1.452" class="cls-1" data-name="Path 12426" transform="translate(-9.489 -6.957)"/>
    </g>
    <path id="Path_12429" fill="none" d="M0 0h11.414v11.414H0z" data-name="Path 12429"/>
</svg>
