<svg id="Wallet.2" xmlns="http://www.w3.org/2000/svg" width="24" height="24" viewBox="0 0 24 24">
  <path id="Path_19310" data-name="Path 19310" d="M0,0H24V24H0Z" fill="none"/>
  <path id="Path_19311" data-name="Path 19311" d="M16.595,13.125a.375.375,0,1,0,.376.375.376.376,0,0,0-.376-.375" fill="none" stroke="#3f53d9" stroke-linecap="round" stroke-linejoin="round" stroke-width="1.5"/>
  <path id="Path_19312" data-name="Path 19312" d="M3,5V18.5a2,2,0,0,0,2,2H19a2,2,0,0,0,2-2V8.5a2,2,0,0,0-2-2H4.5A1.5,1.5,0,0,1,3,5H3A1.5,1.5,0,0,1,4.5,3.5H17" fill="rgba(255,255,255,0)" stroke="#3f53d9" stroke-linecap="round" stroke-linejoin="round" stroke-width="1.5"/>
</svg>
