<svg id="Group_11344" data-name="Group 11344" xmlns="http://www.w3.org/2000/svg" width="40" height="40" viewBox="0 0 40 40">
  <rect id="Rectangle_1866" data-name="Rectangle 1866" width="40" height="40" rx="20" fill="rgba(0,219,181,0.15)"/>
  <g id="Whatsup" transform="translate(8 8)">
    <path id="Path_29502" data-name="Path 29502" d="M0,0H24V24H0Z" fill="none" fill-rule="evenodd"/>
    <path id="Path_29503" data-name="Path 29503" d="M18.2,5.762A8.719,8.719,0,0,0,4.481,16.277L3.244,20.793l4.622-1.212a8.717,8.717,0,0,0,4.167,1.061h0A8.718,8.718,0,0,0,18.2,5.762Z" fill="none" stroke="#00dbb5" stroke-linecap="round" stroke-linejoin="round" stroke-width="1.5"/>
    <g id="Group_16401" data-name="Group 16401" transform="translate(7.5 7.501)">
      <path id="Path_29504" data-name="Path 29504" d="M13.1,13.56l.406-.4a1.092,1.092,0,0,1,1.393-.115c.416.292.792.554,1.142.8A1.081,1.081,0,0,1,16.18,15.5l-.359.359" transform="translate(-7.5 -7.501)" fill="none" stroke="#00dbb5" stroke-linecap="round" stroke-linejoin="round" stroke-width="1.5"/>
      <path id="Path_29505" data-name="Path 29505" d="M8.145,8.179,8.5,7.82a1.083,1.083,0,0,1,1.656.144c.243.35.505.726.8,1.142a1.091,1.091,0,0,1-.115,1.393l-.4.406" transform="translate(-7.5 -7.501)" fill="none" stroke="#00dbb5" stroke-linecap="round" stroke-linejoin="round" stroke-width="1.5"/>
      <path id="Path_29506" data-name="Path 29506" d="M15.821,15.855c-1.481,1.474-3.97.222-5.935-1.744" transform="translate(-7.5 -7.501)" fill="none" stroke="#00dbb5" stroke-linecap="round" stroke-linejoin="round" stroke-width="1.5"/>
      <path id="Path_29507" data-name="Path 29507" d="M9.888,14.114C7.923,12.148,6.671,9.66,8.145,8.179" transform="translate(-7.5 -7.501)" fill="none" stroke="#00dbb5" stroke-linecap="round" stroke-linejoin="round" stroke-width="1.5"/>
      <path id="Path_29508" data-name="Path 29508" d="M10.44,10.9a8.686,8.686,0,0,0,1.19,1.463l0,0a8.686,8.686,0,0,0,1.463,1.19" transform="translate(-7.5 -7.501)" fill="none" stroke="#00dbb5" stroke-linecap="round" stroke-linejoin="round" stroke-width="1.5"/>
    </g>
  </g>
</svg>
