<svg xmlns="http://www.w3.org/2000/svg" id="Whatsup" width="24" height="24" viewBox="0 0 24 24">
    <defs>
        <style>
            .cls-2{fill:none;stroke:#2a2f33;stroke-linecap:round;stroke-linejoin:round;stroke-width:1.5px}
        </style>
    </defs>
    <path id="Path_11676" fill="none" fill-rule="evenodd" d="M0 0h24v24H0z"/>
    <path id="Path_11677" d="M18.2 5.762A8.719 8.719 0 0 0 4.481 16.277l-1.237 4.516 4.622-1.212a8.717 8.717 0 0 0 4.167 1.061A8.718 8.718 0 0 0 18.2 5.762z" class="cls-2"/>
    <g id="Group_955" transform="translate(7.5 7.501)">
        <path id="Path_11678" d="M13.1 13.56l.406-.4a1.092 1.092 0 0 1 1.393-.115l1.142.8a1.081 1.081 0 0 1 .139 1.655l-.359.359" class="cls-2" transform="translate(-7.5 -7.501)"/>
        <path id="Path_11679" d="M8.145 8.179L8.5 7.82a1.083 1.083 0 0 1 1.656.144c.243.35.505.726.8 1.142a1.091 1.091 0 0 1-.115 1.393l-.4.406" class="cls-2" transform="translate(-7.5 -7.501)"/>
        <path id="Path_11680" d="M15.821 15.855c-1.481 1.474-3.97.222-5.935-1.744" class="cls-2" transform="translate(-7.5 -7.501)"/>
        <path id="Path_11681" d="M9.888 14.114C7.923 12.148 6.671 9.66 8.145 8.179" class="cls-2" transform="translate(-7.5 -7.501)"/>
        <path id="Path_11682" d="M10.44 10.9a8.686 8.686 0 0 0 1.19 1.463 8.686 8.686 0 0 0 1.463 1.19" class="cls-2" transform="translate(-7.5 -7.501)"/>
    </g>
</svg>
