<svg xmlns="http://www.w3.org/2000/svg" width="24" height="24" viewBox="0 0 24 24">
    <g>
        <path fill="#fff" d="M12 0a11.993 11.993 0 0 0-9.715 19.034l-1.5 4.458L5.4 22.017A12 12 0 1 0 12 0zm6.983 16.945a3.386 3.386 0 0 1-2.355 1.694c-.627.133-1.446.24-4.2-.9-3.526-1.461-5.8-5.044-5.974-5.277a6.854 6.854 0 0 1-1.425-3.62 3.831 3.831 0 0 1 1.227-2.92 1.743 1.743 0 0 1 1.227-.431c.148 0 .282.008.4.014.352.015.53.036.762.592.289.7.995 2.42 1.078 2.6a.714.714 0 0 1 .051.649 2.074 2.074 0 0 1-.388.55c-.177.2-.345.36-.522.579-.162.19-.345.394-.141.747a10.651 10.651 0 0 0 1.947 2.42 8.822 8.822 0 0 0 2.814 1.735.759.759 0 0 0 .846-.133A14.519 14.519 0 0 0 15.268 14a.67.67 0 0 1 .861-.261c.324.113 2.038.96 2.391 1.135s.585.261.67.41a2.989 2.989 0 0 1-.204 1.661z"/>
    </g>
</svg>
