<svg xmlns="http://www.w3.org/2000/svg" width="61.582" height="61.436" viewBox="0 0 61.582 61.436">
    <g>
        <g>
            <path fill="#fff" d="M61.572 20.468A19.22 19.22 0 0 1 45.85 38.625L39.084 40.1l-1.7.367c.112.506.228.987.343 1.445a49.738 49.738 0 0 0 7.293 16.062 30.493 30.493 0 0 1-6.156 2.415 31.227 31.227 0 0 1-8.075 1.073 31.813 31.813 0 0 1-14-3.36 49.775 49.775 0 0 0 4.2-7.308 49.99 49.99 0 0 0 3.264-9.243c.075-.312.151-.652.24-1.022L22.5 40.1l-6.766-1.473A19.211 19.211 0 0 1 .7 14.611L25 21.294a.512.512 0 0 0-.012-.069 11.4 11.4 0 0 1-5.514-9.479 11.624 11.624 0 0 1 1.368-5.736A11.409 11.409 0 0 1 28.1.366 11.485 11.485 0 0 1 34.472.6a11.3 11.3 0 0 1 2.9 1.442 11.633 11.633 0 0 1 3.94 4.725 11.4 11.4 0 0 1-.62 10.533 11.886 11.886 0 0 1-3.759 3.852.433.433 0 0 0 0 .047l23.958-6.591a19.1 19.1 0 0 1 .681 5.857z" transform="translate(-0.005 -0.024) translate(0.005 0.024) translate(-0.005 -0.024)"/>
        </g>
    </g>
</svg>
