<svg id="Layer_2" data-name="Layer 2" xmlns="http://www.w3.org/2000/svg" width="15.969" height="15.969" viewBox="0 0 15.969 15.969">
  <g id="Arrow.7">
    <path id="Path_7187" data-name="Path 7187" d="M0,0H15.969V15.969H0Z" fill="none"/>
    <path id="Path_19581" data-name="Path 19581" d="M11.665,12.2A.665.665,0,0,1,11,11.534V9.045a.665.665,0,1,1,1.331,0v2.488A.665.665,0,0,1,11.665,12.2Z" transform="translate(-3.681 -2.804)" fill="#ff6575"/>
    <path id="Path_7189" data-name="Path 7189" d="M11.6,15.2a.778.778,0,1,0,.553.23.785.785,0,0,0-.553-.23h0" transform="translate(-3.617 -5.086)" fill="#ff6575"/>
    <path id="Path_19582" data-name="Path 19582" d="M3.222,15.3A2.229,2.229,0,0,1,1,13.1a2.3,2.3,0,0,1,.293-1.131l5.1-8.889a2.229,2.229,0,0,1,3.859,0l5.1,8.889a2.225,2.225,0,0,1-1.93,3.327ZM8.319,3.32a.892.892,0,0,0-.233,0,.865.865,0,0,0-.539.413l-5.1,8.9a.852.852,0,0,0-.12.466.892.892,0,0,0,.259.632.9.9,0,0,0,.632.259H13.416a.852.852,0,0,0,.439-.12.885.885,0,0,0,.333-1.211l-5.1-8.923h0a.872.872,0,0,0-.333-.326A.852.852,0,0,0,8.319,3.32Z" transform="translate(-0.335 -0.658)" fill="#ff6575"/>
  </g>
</svg>
