<svg id="Broken_Link_Unlink_Attachment.4" data-name="Broken, Link, Unlink, Attachment.4" xmlns="http://www.w3.org/2000/svg" width="24" height="24" viewBox="0 0 24 24">
    <defs>
        <style>
            .cls-1{fill:none;stroke:#0c0b31;stroke-linecap:round;stroke-linejoin:round;stroke-width:1.75px}
        </style>
    </defs>
    <g id="Group_344" data-name="Group 344" transform="translate(3 3)">
        <path id="Path_4252" data-name="Path 4252" class="cls-1" d="m8.89 15.11 6.22-6.22" transform="translate(-3 -3)"/>
        <path id="Path_4253" data-name="Path 4253" class="cls-1" d="m11 8 2-2a3.535 3.535 0 0 1 5 0h0a3.535 3.535 0 0 1 0 5l-2 2" transform="translate(-3 -3)"/>
        <path id="Path_4254" data-name="Path 4254" class="cls-1" d="m13 16-2 2a3.535 3.535 0 0 1-5 0h0a3.535 3.535 0 0 1 0-5l2-2" transform="translate(-3 -3)"/>
        <path id="Path_4255" data-name="Path 4255" class="cls-1" d="M19 15h2" transform="translate(-3 -3)"/>
        <path id="Path_4256" data-name="Path 4256" class="cls-1" d="M15 21v-2" transform="translate(-3 -3)"/>
        <path id="Path_4257" data-name="Path 4257" class="cls-1" d="m18 18 1.41 1.41" transform="translate(-3 -3)"/>
        <path id="Path_4258" data-name="Path 4258" class="cls-1" d="M5 9H3" transform="translate(-3 -3)"/>
        <path id="Path_4259" data-name="Path 4259" class="cls-1" d="M9 3v2" transform="translate(-3 -3)"/>
        <path id="Path_4260" data-name="Path 4260" class="cls-1" d="M6 6 4.59 4.59" transform="translate(-3 -3)"/>
    </g>
    <path id="Path_4261" data-name="Path 4261" d="M0 0h24v24H0z" style="fill:none"/>
</svg>
