<svg id="Calendar_Schedule.1" data-name="Calendar,Schedule.1" xmlns="http://www.w3.org/2000/svg" width="24" height="24" viewBox="0 0 24 24">
  <g id="Group_356" data-name="Group 356" transform="translate(3 2)">
    <path id="Path_4403" data-name="Path 4403" d="M16,2V6" transform="translate(-3 -2)" fill="none" stroke="#0c0b31" stroke-linecap="round" stroke-linejoin="round" stroke-width="1.5"/>
    <path id="Path_4404" data-name="Path 4404" d="M8,2V6" transform="translate(-3 -2)" fill="none" stroke="#0c0b31" stroke-linecap="round" stroke-linejoin="round" stroke-width="1.5"/>
    <path id="Path_4405" data-name="Path 4405" d="M3,9H21" transform="translate(-3 -2)" fill="none" stroke="#0c0b31" stroke-linecap="round" stroke-linejoin="round" stroke-width="1.5"/>
    <path id="Path_4406" data-name="Path 4406" d="M19,4H5A2,2,0,0,0,3,6V19a2,2,0,0,0,2,2H19a2,2,0,0,0,2-2V6A2,2,0,0,0,19,4Z" transform="translate(-3 -2)" fill="none" stroke="#0c0b31" stroke-linecap="round" stroke-linejoin="round" stroke-width="1.5"/>
    <path id="Path_4407" data-name="Path 4407" d="M12.013,12.729a.25.25,0,1,0,.251.25.249.249,0,0,0-.251-.25" transform="translate(-3 -2)" fill="none" stroke="#0c0b31" stroke-linecap="round" stroke-linejoin="round" stroke-width="1.5"/>
    <path id="Path_4408" data-name="Path 4408" d="M17.013,12.729a.25.25,0,1,0,.251.25.249.249,0,0,0-.251-.25" transform="translate(-3 -2)" fill="none" stroke="#0c0b31" stroke-linecap="round" stroke-linejoin="round" stroke-width="1.5"/>
    <path id="Path_4409" data-name="Path 4409" d="M7.013,16.729a.25.25,0,1,0,.251.25.249.249,0,0,0-.251-.25" transform="translate(-3 -2)" fill="none" stroke="#0c0b31" stroke-linecap="round" stroke-linejoin="round" stroke-width="1.5"/>
    <path id="Path_4410" data-name="Path 4410" d="M12.013,16.729a.25.25,0,1,0,.251.25.249.249,0,0,0-.251-.25" transform="translate(-3 -2)" fill="none" stroke="#0c0b31" stroke-linecap="round" stroke-linejoin="round" stroke-width="1.5"/>
  </g>
</svg>
