<svg id="Camera_Photo" data-name="Camera,Photo" xmlns="http://www.w3.org/2000/svg" width="30" height="30" viewBox="0 0 30 30">
    <defs>
        <style>
            .cls-1{fill:rgba(12,11,49,.5)}
        </style>
    </defs>
    <g id="Group_782" data-name="Group 782" transform="translate(3.751 4.999)">
        <path id="Subtraction_1" data-name="Subtraction 1" class="cls-1" d="M20 20H2.5A2.5 2.5 0 0 1 0 17.5V6.25a2.5 2.5 0 0 1 2.5-2.5H5L6.827.621A1.255 1.255 0 0 1 7.907 0h6.63a1.256 1.256 0 0 1 1.07.606L17.5 3.751H20a2.5 2.5 0 0 1 2.5 2.5V17.5A2.5 2.5 0 0 1 20 20zM11.325 6.25a4.984 4.984 0 1 0 3.524 1.46 4.947 4.947 0 0 0-3.524-1.46z"/>
    </g>
    <path id="Path_9573" data-name="Path 9573" d="M0 0h30v30H0z" style="fill:none"/>
    <path id="Path_12880" data-name="Path 12880" class="cls-1" d="M12.542 9.767a2.618 2.618 0 1 1-3.7 0 2.618 2.618 0 0 1 3.7 0" transform="translate(4.384 4.616)"/>
</svg>
