<svg xmlns="http://www.w3.org/2000/svg" id="Dashboard.3" width="24" height="24" viewBox="0 0 24 24">
    <g id="Group_394" transform="translate(3 5)">
        <path id="Path_4799" d="M13.414 11.586a2 2 0 1 1-2.828 0 2 2 0 0 1 2.828 0" style="fill:none;stroke:#4264fb;stroke-linecap:round;stroke-linejoin:round;stroke-width:1.5px" transform="translate(-3 -5)"/>
        <path id="Path_4800" d="M12 5v2" style="fill:none;stroke:#4264fb;stroke-linecap:round;stroke-linejoin:round;stroke-width:1.5px"  transform="translate(-3 -5)"/>
        <path id="Path_4801" d="M21 14h-2" style="fill:none;stroke:#4264fb;stroke-linecap:round;stroke-linejoin:round;stroke-width:1.5px"  transform="translate(-3 -5)"/>
        <path id="Path_4802" d="M5 14H3" style="fill:none;stroke:#4264fb;stroke-linecap:round;stroke-linejoin:round;stroke-width:1.5px"  transform="translate(-3 -5)"/>
        <path id="Path_4803" d="M15.41 9.59l-2 2" style="fill:none;stroke:#4264fb;stroke-linecap:round;stroke-linejoin:round;stroke-width:1.5px"  transform="translate(-3 -5)"/>
        <path id="Path_4805" d="M18.319 19H5.679A1.969 1.969 0 0 1 3.9 17.916a9 9 0 1 1 16.21-.016 1.98 1.98 0 0 1-1.791 1.1z" style="fill:none;stroke:#4264fb;stroke-linecap:round;stroke-linejoin:round;stroke-width:1.5px"  transform="translate(-3 -5)"/>
    </g>
</svg>
