<svg id="Mobile_Devices" data-name="Mobile, Devices" xmlns="http://www.w3.org/2000/svg" width="24" height="24" viewBox="0 0 24 24">
  <path id="XMLID_444_" d="M54.157.832q0-.039,0-.079c0-.013,0-.026-.006-.039s0-.028-.006-.042S54.134.644,54.13.629s-.006-.024-.009-.036-.01-.028-.015-.042S54.1.528,54.093.516s-.012-.026-.018-.039-.011-.024-.017-.036-.014-.025-.022-.037-.013-.022-.02-.033S54,.345,53.987.332L53.968.307A.837.837,0,0,0,53.85.189L53.827.172C53.813.161,53.8.15,53.785.141L53.753.121,53.714.1,53.681.083,53.64.064,53.608.052,53.563.036,53.531.028,53.484.016,53.449.011,53.4,0l-.054,0-.027,0H50.682a.836.836,0,1,0,0,1.672H51.3L50.044,2.931a5.811,5.811,0,1,0-4.324,10.4v1.086H44.69a.836.836,0,0,0,0,1.672h1.03v1.03a.836.836,0,1,0,1.672,0v-1.03h1.03a.836.836,0,0,0,0-1.672h-1.03V13.329a5.809,5.809,0,0,0,3.83-9.213l1.262-1.263v.621a.836.836,0,0,0,1.672,0V.836S54.157.833,54.157.832Zm-7.6,10.886a4.14,4.14,0,1,1,4.14-4.14A4.145,4.145,0,0,1,46.556,11.718Z" transform="translate(-35.102 3.117)" fill="#0c0b31"/>
</svg>
