<svg id="News" xmlns="http://www.w3.org/2000/svg" width="24" height="24" viewBox="0 0 24 24">
  <g id="Group_475" data-name="Group 475">
    <path id="Path_5908" data-name="Path 5908" d="M19,21h0a2,2,0,0,0,2-2V13a1,1,0,0,0-1-1H17v7A2,2,0,0,0,19,21Z" fill="none" stroke="#0c0b31" stroke-linecap="round" stroke-linejoin="round" stroke-width="1.5"/>
    <path id="Path_5909" data-name="Path 5909" d="M7,8h6" fill="none" stroke="#0c0b31" stroke-linecap="round" stroke-linejoin="round" stroke-width="1.5"/>
    <path id="Path_5910" data-name="Path 5910" d="M7,11.87h6" fill="none" stroke="#0c0b31" stroke-linecap="round" stroke-linejoin="round" stroke-width="1.5"/>
    <path id="Path_5911" data-name="Path 5911" d="M7,16.06h3" fill="none" stroke="#0c0b31" stroke-linecap="round" stroke-linejoin="round" stroke-width="1.5"/>
    <path id="Path_5912" data-name="Path 5912" d="M17,12V5a1,1,0,0,0-1-1H4A1,1,0,0,0,3,5V19a2,2,0,0,0,2,2H19" fill="none" stroke="#0c0b31" stroke-linecap="round" stroke-linejoin="round" stroke-width="1.5"/>
  </g>
  <path id="Path_5913" data-name="Path 5913" d="M0,0H24V24H0Z" fill="none"/>
</svg>
