<svg xmlns="http://www.w3.org/2000/svg" width="45" height="45" viewBox="0 0 45 45">
    <defs>
        <style>
            .cls-2{fill:#abaab8}
        </style>
    </defs>
    <g id="Layer_2" data-name="Layer 2" transform="translate(5 5.984)">
        <g id="Search_Loupe_Question" data-name="Search Loupe Question" transform="translate(-5 -5.984)">
            <path id="Path_19244" data-name="Path 19244" d="M25.944 39.148a17.336 17.336 0 0 1-6.232.239 13.508 13.508 0 0 1-4.322-1.28C10.557 35.606 7.871 29.512 8 23.8A17.452 17.452 0 0 1 25.4 6.34c2.924 0 6.078.691 7.425 1.656a15.352 15.352 0 0 1 3.137 3.038 19.193 19.193 0 0 1 2.873 5.257 17.591 17.591 0 0 1-12.89 22.856z" transform="translate(-1.045 -.843)" style="fill:#69677f;opacity:.1"/>
            <path id="Path_19571" data-name="Path 19571" class="cls-2" d="m44.5 42.092-7.3-7.3a21.112 21.112 0 1 0-2.426 2.427l7.3 7.3a1.716 1.716 0 1 0 2.426-2.427zM8.574 33.636a17.677 17.677 0 1 1 12.509 5.145 17.686 17.686 0 0 1-12.509-5.145z" transform="translate(0 -.016)"/>
            <path id="Path_19572" data-name="Path 19572" class="cls-2" d="M30.212 27.751a1.74 1.74 0 1 1-2.46 2.46L23.8 26.256l-3.964 3.955a1.74 1.74 0 1 1-2.46-2.46l3.951-3.951-3.964-3.964a1.74 1.74 0 1 1 2.46-2.46l3.977 3.951 3.955-3.964a1.74 1.74 0 1 1 2.46 2.46l-3.955 3.964z" transform="translate(-2.492 -2.501)"/>
        </g>
    </g>
</svg>
