<svg id="Pin_Location.1" data-name="Pin, Location.1" xmlns="http://www.w3.org/2000/svg" width="24" height="24" viewBox="0 0 24 24">
  <path id="Path_7855" data-name="Path 7855" d="M0,0H24V24H0Z" fill="none"/>
  <path id="Path_7856" data-name="Path 7856" d="M12,13h0a3,3,0,0,1-3-3H9a3,3,0,0,1,3-3h0a3,3,0,0,1,3,3h0A3,3,0,0,1,12,13Z" fill="none" stroke="#0c0b31" stroke-linecap="round" stroke-linejoin="round" stroke-width="1.5"/>
  <path id="Path_7857" data-name="Path 7857" d="M12,21S5,15.25,5,10a7,7,0,0,1,14,0C19,15.25,12,21,12,21Z" fill="none" stroke="#0c0b31" stroke-linecap="round" stroke-linejoin="round" stroke-width="1.5"/>
</svg>
