<svg id="Pin_Location" data-name="Pin, Location" xmlns="http://www.w3.org/2000/svg" width="24" height="24" viewBox="0 0 24 24">
  <g id="Group_652" data-name="Group 652" transform="translate(3 2)">
    <path id="Path_7862" data-name="Path 7862" d="M9.116,14.187C5.562,14.655,3,15.96,3,17.5,3,19.433,7.029,21,12,21s9-1.567,9-3.5c0-1.54-2.562-2.845-6.116-3.313" transform="translate(-3 -2)" fill="none" stroke="#0c0b31" stroke-linecap="round" stroke-linejoin="round" stroke-width="1.5"/>
    <path id="Path_7863" data-name="Path 7863" d="M18,7.833A5.918,5.918,0,0,0,12,2,5.918,5.918,0,0,0,6,7.833C6,12.208,12,17,12,17S18,12.208,18,7.833Z" transform="translate(-3 -2)" fill="none" stroke="#0c0b31" stroke-linecap="round" stroke-linejoin="round" stroke-width="1.5"/>
    <path id="Path_7864" data-name="Path 7864" d="M13.414,6.586a2,2,0,1,1-2.828,0,2,2,0,0,1,2.828,0" transform="translate(-3 -2)" fill="none" stroke="#0c0b31" stroke-linecap="round" stroke-linejoin="round" stroke-width="1.5"/>
  </g>
  <path id="Path_7865" data-name="Path 7865" d="M0,0H24V24H0Z" fill="none"/>
</svg>
