<svg id="User_Profile.8" data-name="User,Profile.8" xmlns="http://www.w3.org/2000/svg" width="24" height="24" viewBox="0 0 24 24">
  <g id="Group_1031" data-name="Group 1031" transform="translate(2 3.5)">
    <path id="Path_12386" data-name="Path 12386" d="M10.091,8.159a2.25,2.25,0,1,1-3.182,0,2.25,2.25,0,0,1,3.182,0" transform="translate(-2 -3.5)" fill="none" stroke="#0c0b31" stroke-linecap="round" stroke-linejoin="round" stroke-width="1.5"/>
    <path id="Path_12387" data-name="Path 12387" d="M2,18.5V5.541A2.041,2.041,0,0,1,4.041,3.5H20a2,2,0,0,1,2,2v13a2,2,0,0,1-2,2H4A2,2,0,0,1,2,18.5Z" transform="translate(-2 -3.5)" fill="none" stroke="#0c0b31" stroke-linecap="round" stroke-linejoin="round" stroke-width="1.5"/>
    <path id="Path_12388" data-name="Path 12388" d="M15,9.5h4" transform="translate(-2 -3.5)" fill="none" stroke="#0c0b31" stroke-linecap="round" stroke-linejoin="round" stroke-width="1.5"/>
    <path id="Path_12389" data-name="Path 12389" d="M17.4,13.5H15" transform="translate(-2 -3.5)" fill="none" stroke="#0c0b31" stroke-linecap="round" stroke-linejoin="round" stroke-width="1.5"/>
    <path id="Path_12390" data-name="Path 12390" d="M12.1,16.5a3.17,3.17,0,0,0-.792-1.154h0A3.173,3.173,0,0,0,9.146,14.5H7.854a3.173,3.173,0,0,0-2.157.846h0A3.17,3.17,0,0,0,4.905,16.5" transform="translate(-2 -3.5)" fill="none" stroke="#0c0b31" stroke-linecap="round" stroke-linejoin="round" stroke-width="1.5"/>
  </g>
</svg>
