<svg id="Group_User_Add" data-name="Group, User, Add" xmlns="http://www.w3.org/2000/svg" width="24" height="24" viewBox="0 0 24 24">
  <path id="Path_17987" data-name="Path 17987" d="M0,0H24V24H0Z" fill="none"/>
  <path id="Path_17988" data-name="Path 17988" d="M20.286,3.714a2.438,2.438,0,1,1-3.448,0,2.438,2.438,0,0,1,3.448,0" transform="translate(0 0)" fill="none" stroke="#0c0b31" stroke-linecap="round" stroke-linejoin="round" stroke-width="1.5"/>
  <path id="Path_17989" data-name="Path 17989" d="M20.915,10.2a8.238,8.238,0,0,0-.923-2.8" transform="translate(0 0)" fill="none" stroke="#0c0b31" stroke-linecap="round" stroke-linejoin="round" stroke-width="1.5"/>
  <path id="Path_17990" data-name="Path 17990" d="M16.6,4.008a8.238,8.238,0,0,0-2.8-.923" transform="translate(0 0)" fill="none" stroke="#0c0b31" stroke-linecap="round" stroke-linejoin="round" stroke-width="1.5"/>
  <path id="Path_17991" data-name="Path 17991" d="M7.162,16.838a2.438,2.438,0,1,1-3.448,0,2.438,2.438,0,0,1,3.448,0" transform="translate(0 0)" fill="none" stroke="#0c0b31" stroke-linecap="round" stroke-linejoin="round" stroke-width="1.5"/>
  <path id="Path_17992" data-name="Path 17992" d="M3.085,13.8a8.238,8.238,0,0,0,.923,2.8" transform="translate(0 0)" fill="none" stroke="#0c0b31" stroke-linecap="round" stroke-linejoin="round" stroke-width="1.5"/>
  <path id="Path_17993" data-name="Path 17993" d="M10.2,20.915a8.238,8.238,0,0,1-2.8-.923" transform="translate(0 0)" fill="none" stroke="#0c0b31" stroke-linecap="round" stroke-linejoin="round" stroke-width="1.5"/>
  <path id="Path_17994" data-name="Path 17994" d="M7.162,3.714a2.438,2.438,0,1,1-3.448,0,2.438,2.438,0,0,1,3.448,0" transform="translate(0 0)" fill="none" stroke="#0c0b31" stroke-linecap="round" stroke-linejoin="round" stroke-width="1.5"/>
  <path id="Path_17995" data-name="Path 17995" d="M7.4,4.008a8.24,8.24,0,0,1,2.8-.924" transform="translate(0 0)" fill="none" stroke="#0c0b31" stroke-linecap="round" stroke-linejoin="round" stroke-width="1.5"/>
  <path id="Path_17996" data-name="Path 17996" d="M4.008,7.4a8.238,8.238,0,0,0-.923,2.8" transform="translate(0 0)" fill="none" stroke="#0c0b31" stroke-linecap="round" stroke-linejoin="round" stroke-width="1.5"/>
  <path id="Path_17997" data-name="Path 17997" d="M20.286,16.838a2.438,2.438,0,1,1-3.448,0,2.438,2.438,0,0,1,3.448,0" transform="translate(0 0)" fill="none" stroke="#0c0b31" stroke-linecap="round" stroke-linejoin="round" stroke-width="1.5"/>
  <path id="Path_17998" data-name="Path 17998" d="M9,12h6" transform="translate(0)" fill="none" stroke="#0c0b31" stroke-linecap="round" stroke-linejoin="round" stroke-width="1.5"/>
  <path id="Path_17999" data-name="Path 17999" d="M12,15V9" transform="translate(0 0)" fill="none" stroke="#0c0b31" stroke-linecap="round" stroke-linejoin="round" stroke-width="1.5"/>
  <path id="Path_18000" data-name="Path 18000" d="M19.992,16.6a8.238,8.238,0,0,0,.923-2.8" transform="translate(0 0)" fill="none" stroke="#0c0b31" stroke-linecap="round" stroke-linejoin="round" stroke-width="1.5"/>
  <path id="Path_18001" data-name="Path 18001" d="M16.6,19.992a8.238,8.238,0,0,1-2.8.923" transform="translate(0 0)" fill="none" stroke="#0c0b31" stroke-linecap="round" stroke-linejoin="round" stroke-width="1.5"/>
</svg>
