<svg id="Bell_Notifications.5" data-name="Bell, Notifications.5" xmlns="http://www.w3.org/2000/svg" width="24" height="24" viewBox="0 0 24 24">
  <g id="Group_12484" data-name="Group 12484" transform="translate(5.325 3.092)">
    <path id="Path_18059" data-name="Path 18059" d="M9.569,19.006l.119.344a2.286,2.286,0,0,0,2.906,1.418h0a2.286,2.286,0,0,0,1.418-2.906l-.119-.344" transform="translate(-5.316 -3.077)" fill="none" stroke="#0c0b31" stroke-linecap="round" stroke-linejoin="round" stroke-width="1.5"/>
    <path id="Path_18060" data-name="Path 18060" d="M10.976,5.2l-.3-.866A1.829,1.829,0,0,0,8.352,3.2h0A1.83,1.83,0,0,0,7.218,5.524l.3.866" transform="translate(-5.31 -3.099)" fill="none" stroke="#0c0b31" stroke-linecap="round" stroke-linejoin="round" stroke-width="1.5"/>
    <path id="Path_18061" data-name="Path 18061" d="M5.553,11.776h0a4.543,4.543,0,0,1,2.8-5.769l1.71-.591A4.517,4.517,0,0,1,15.812,8.23h0l.908,2.648a2,2,0,0,0,1.012,1.148l.813.4a2,2,0,0,1,1.012,1.148h0a1.9,1.9,0,0,1-1.169,2.407l-10.111,3.5a1.884,1.884,0,0,1-2.4-1.174h0a2.012,2.012,0,0,1,.093-1.53l.4-.816a2.007,2.007,0,0,0,.093-1.53l-.907-2.646Z" transform="translate(-5.306 -3.104)" fill="none" stroke="#0c0b31" stroke-linecap="round" stroke-linejoin="round" stroke-width="1.5"/>
  </g>
  <path id="Path_18062" data-name="Path 18062" d="M0,0H24V24H0Z" fill="none"/>
</svg>
