<svg id="Calendar_Pages" data-name="Calendar, Pages" xmlns="http://www.w3.org/2000/svg" width="24" height="24" viewBox="0 0 24 24">
  <g id="Group_12500" data-name="Group 12500" transform="translate(3.11 3.11)">
    <path id="Path_18178" data-name="Path 18178" d="M3,9H18.549" transform="translate(-3 -3.073)" fill="none" stroke="#0c0b31" stroke-linecap="round" stroke-linejoin="round" stroke-width="1.5"/>
    <path id="Path_18179" data-name="Path 18179" d="M13.974,18.513h-8.9A2.073,2.073,0,0,1,3,16.439V6.073A2.073,2.073,0,0,1,5.073,4h11.4a2.073,2.073,0,0,1,2.073,2.073v7.864a1.034,1.034,0,0,1-.3.733l-3.539,3.539a1.036,1.036,0,0,1-.733.3Z" transform="translate(-3 -2.963)" fill="none" stroke="#0c0b31" stroke-linecap="round" stroke-linejoin="round" stroke-width="1.5"/>
    <path id="Path_18180" data-name="Path 18180" d="M13,18.183V14.037A1.037,1.037,0,0,1,14.037,13h4.146" transform="translate(-3.31 -3.31)" fill="none" stroke="#0c0b31" stroke-linecap="round" stroke-linejoin="round" stroke-width="1.5"/>
    <path id="Path_18181" data-name="Path 18181" d="M14,3V5.073" transform="translate(-3.134 -3)" fill="none" stroke="#0c0b31" stroke-linecap="round" stroke-linejoin="round" stroke-width="1.5"/>
    <path id="Path_18182" data-name="Path 18182" d="M7,3V5.073" transform="translate(-3.049 -3)" fill="none" stroke="#0c0b31" stroke-linecap="round" stroke-linejoin="round" stroke-width="1.5"/>
    <path id="Path_18183" data-name="Path 18183" d="M21.476,9V19.366A2.073,2.073,0,0,1,19.4,21.439H8" transform="translate(-3.696 -3.659)" fill="none" stroke="#0c0b31" stroke-linecap="round" stroke-linejoin="round" stroke-width="1.5"/>
  </g>
  <path id="Path_18184" data-name="Path 18184" d="M0,0H24V24H0Z" fill="none"/>
</svg>
