<svg id="Business_Chart.4" data-name="Business, Chart.4" xmlns="http://www.w3.org/2000/svg" width="24" height="24" viewBox="0 0 24 24">
  <g id="Group_10883" data-name="Group 10883" transform="translate(2.013 3.948)">
    <path id="Path_13642" data-name="Path 13642" d="M3,9.033V6.013A2,2,0,0,1,5,4h13.97a2,2,0,0,1,2,2.013V18.091a2,2,0,0,1-2,2.013H12.978" transform="translate(-1.993 -4)" fill="none" stroke="#0c0b31" stroke-linecap="round" stroke-linejoin="round" stroke-width="1.5"/>
    <path id="Path_13643" data-name="Path 13643" d="M9.046,20.014l-.253-.634a2.319,2.319,0,0,0-.58-.844h0a2.323,2.323,0,0,0-1.579-.619H4.412a2.326,2.326,0,0,0-1.579.619h0a2.319,2.319,0,0,0-.58.844L2,20.014" transform="translate(-2 -3.909)" fill="none" stroke="#0c0b31" stroke-linecap="round" stroke-linejoin="round" stroke-width="1.5"/>
    <path id="Path_13644" data-name="Path 13644" d="M6.756,12.516a1.761,1.761,0,1,1-2.491,0,1.762,1.762,0,0,1,2.491,0" transform="translate(-1.989 -3.948)" fill="none" stroke="#0c0b31" stroke-linecap="round" stroke-linejoin="round" stroke-width="1.5"/>
    <path id="Path_13645" data-name="Path 13645" d="M11,15.039V9" transform="translate(-2.015 -3.967)" fill="none" stroke="#0c0b31" stroke-linecap="round" stroke-linejoin="round" stroke-width="1.5"/>
    <path id="Path_13646" data-name="Path 13646" d="M14,15.022V11.68" transform="translate(-2.021 -3.95)" fill="none" stroke="#0c0b31" stroke-linecap="round" stroke-linejoin="round" stroke-width="1.5"/>
    <path id="Path_13647" data-name="Path 13647" d="M17,15.035V9.55" transform="translate(-2.026 -3.964)" fill="none" stroke="#0c0b31" stroke-linecap="round" stroke-linejoin="round" stroke-width="1.5"/>
  </g>
  <path id="Path_13648" data-name="Path 13648" d="M0,0H24V24H0Z" fill="none"/>
</svg>
