<svg id="Documents_File_Text.1" data-name="Documents, File, Text.1" xmlns="http://www.w3.org/2000/svg" width="24" height="24" viewBox="0 0 24 24">
  <g id="Group_12495" data-name="Group 12495" transform="translate(4.906 3.04)">
    <path id="Path_18114" data-name="Path 18114" d="M18.595,6.4,15.729,3.583A2.046,2.046,0,0,0,14.3,3H7.027A2.009,2.009,0,0,0,5,4.991V18.928a2.009,2.009,0,0,0,2.027,1.991H17.162a2.009,2.009,0,0,0,2.027-1.991V7.806A1.974,1.974,0,0,0,18.595,6.4Z" transform="translate(-5 -3)" fill="none" stroke="#0c0b31" stroke-linecap="round" stroke-linejoin="round" stroke-width="1.5"/>
    <path id="Path_18115" data-name="Path 18115" d="M19.067,8.067H15.013A1.014,1.014,0,0,1,14,7.054V3" transform="translate(-4.879 -3)" fill="none" stroke="#0c0b31" stroke-linecap="round" stroke-linejoin="round" stroke-width="1.5"/>
    <path id="Path_18116" data-name="Path 18116" d="M8,11h6.081" transform="translate(-4.96 -3.036)" fill="none" stroke="#0c0b31" stroke-linecap="round" stroke-linejoin="round" stroke-width="1.5"/>
    <path id="Path_18117" data-name="Path 18117" d="M8,14h6.081" transform="translate(-4.96 -3.049)" fill="none" stroke="#0c0b31" stroke-linecap="round" stroke-linejoin="round" stroke-width="1.5"/>
    <path id="Path_18118" data-name="Path 18118" d="M8,17h4.388" transform="translate(-4.96 -3.063)" fill="none" stroke="#0c0b31314351" stroke-linecap="round" stroke-linejoin="round" stroke-width="1.5"/>
  </g>
  <path id="Path_18119" data-name="Path 18119" d="M0,0H24V24H0Z" fill="none"/>
</svg>
