<svg id="Group_User.1" data-name="Group, User.1" xmlns="http://www.w3.org/2000/svg" width="24" height="24" viewBox="0 0 24 24">
  <g id="Group_12479" data-name="Group 12479" transform="translate(0.989 5.08)">
    <path id="Path_18002" data-name="Path 18002" d="M20.753,9.517a2,2,0,1,1-2.828,0,2,2,0,0,1,2.828,0" transform="translate(-0.913 -5.045)" fill="none" stroke="#0c0b31" stroke-linecap="round" stroke-linejoin="round" stroke-width="1.5"/>
    <path id="Path_18003" data-name="Path 18003" d="M14.142,5.9a3.08,3.08,0,1,1-4.355,0,3.08,3.08,0,0,1,4.355,0" transform="translate(-0.953 -5)" fill="none" stroke="#0c0b31" stroke-linecap="round" stroke-linejoin="round" stroke-width="1.5"/>
    <path id="Path_18004" data-name="Path 18004" d="M6.029,9.517a2,2,0,1,1-2.828,0,2,2,0,0,1,2.828,0" transform="translate(-1.018 -5.045)" fill="none" stroke="#0c0b31" stroke-linecap="round" stroke-linejoin="round" stroke-width="1.5"/>
    <path id="Path_18005" data-name="Path 18005" d="M22.962,18.959V17.876A2.471,2.471,0,0,0,20.491,15.4H19.7" transform="translate(-0.94 -5.119)" fill="none" stroke="#0c0b31" stroke-linecap="round" stroke-linejoin="round" stroke-width="1.5"/>
    <path id="Path_18006" data-name="Path 18006" d="M1,18.959V17.876A2.471,2.471,0,0,1,3.472,15.4h.792" transform="translate(-1 -5.119)" fill="none" stroke="#0c0b31" stroke-linecap="round" stroke-linejoin="round" stroke-width="1.5"/>
    <path id="Path_18007" data-name="Path 18007" d="M17.217,18.942V17.359a3.46,3.46,0,0,0-3.46-3.46H10.12a3.46,3.46,0,0,0-3.46,3.46v1.583" transform="translate(-0.928 -5.101)" fill="none" stroke="#0c0b31" stroke-linecap="round" stroke-linejoin="round" stroke-width="1.5"/>
  </g>
  <path id="Path_18008" data-name="Path 18008" d="M0,0H24V24H0Z" fill="none"/>
</svg>
