<svg id="Notes_Pages_Notification" data-name="Notes, Pages, Notification" xmlns="http://www.w3.org/2000/svg" width="24" height="24" viewBox="0 0 24 24">
  <path id="Path_18019" data-name="Path 18019" d="M0,0H24V24H0Z" fill="none"/>
  <path id="Path_18020" data-name="Path 18020" d="M20.1,3.881a3.007,3.007,0,1,1-4.252,0,3.007,3.007,0,0,1,4.252,0" transform="translate(0.022 -0.007)" fill="none" stroke="#0c0b31" stroke-linecap="round" stroke-linejoin="round" stroke-width="1.5"/>
  <path id="Path_18021" data-name="Path 18021" d="M18.961,12.981v5.985a2,2,0,0,1-2,2H5a2,2,0,0,1-2-2V7A2,2,0,0,1,5,5h5.985" transform="translate(-0.007 0.046)" fill="none" stroke="#0c0b31" stroke-linecap="round" stroke-linejoin="round" stroke-width="1.5"/>
  <path id="Path_18022" data-name="Path 18022" d="M7,17h7.981" transform="translate(0.009 0)" fill="none" stroke="#0c0b31" stroke-linecap="round" stroke-linejoin="round" stroke-width="1.5"/>
  <path id="Path_18023" data-name="Path 18023" d="M7,13h7.981" transform="translate(0.009 0)" fill="none" stroke="#0c0b31" stroke-linecap="round" stroke-linejoin="round" stroke-width="1.5"/>
  <path id="Path_18024" data-name="Path 18024" d="M7,9h3.99" transform="translate(0.003)" fill="none" stroke="#0c0b31" stroke-linecap="round" stroke-linejoin="round" stroke-width="1.5"/>
</svg>
