<svg xmlns="http://www.w3.org/2000/svg" id="Display_Graduate_Hat" width="68" height="68" viewBox="0 0 68 68">
    <defs>
        <style>
            .cls-3{fill:none}.cls-2{stroke:#4264fb}.cls-2,.cls-3{stroke-linecap:round;stroke-linejoin:round;stroke-width:4px}.cls-2{fill:#bdc9ff}.cls-3{stroke:#0c0b31}
        </style>
    </defs>
    <g id="Group_12572" transform="translate(8.5 8.5)">
        <path id="Path_18682" fill="none" stroke="#4264fb" stroke-linecap="round" stroke-linejoin="round" stroke-width="4px" d="M17 8.5v5.667" transform="translate(22.667 7.083)"/>
        <path id="Path_18683" d="M24.444 9.667v7.806a2.814 2.814 0 0 1-1.207 2.327 11.26 11.26 0 0 1-6.337 2.05 11.389 11.389 0 0 1-6.351-2.05 2.807 2.807 0 0 1-1.215-2.332v-7.8" class="cls-2" transform="translate(8.612 9.223)"/>
        <path id="Path_18684" d="M46.715 42.667h-36.43A7.284 7.284 0 0 1 3 35.382v-25.1A7.284 7.284 0 0 1 10.285 3h36.428A7.285 7.285 0 0 1 54 10.285v25.094a7.285 7.285 0 0 1-7.285 7.288z" class="cls-3" transform="translate(-3 -3)"/>
        <path id="Path_18685" d="M14 17l1.417 11.333" class="cls-3" transform="translate(17.167 22.667)"/>
        <path id="Path_18686" d="M10.917 17L9.5 28.333" class="cls-3" transform="translate(8.917 22.667)"/>
        <path id="Path_18687" d="M8.14 21h21.873" class="cls-3" transform="translate(6.423 30)"/>
        <path id="Path_18688" d="M7 13.083l14.167 7.083 14.167-7.083L21.167 6z" class="cls-2" transform="translate(4.333 2.5)"/>
    </g>
    <path id="Path_18689" fill="none" d="M0 0h68v68H0z"/>
</svg>
