<svg xmlns="http://www.w3.org/2000/svg" id="Earth_Pin_Location_Direction" width="68" height="68" viewBox="0 0 68 68">
    <defs>
        <style>
            .cls-2{fill:none;stroke:#0c0b31;stroke-linecap:round;stroke-linejoin:round;stroke-width:4px}
        </style>
    </defs>
    <path id="Path_7755" fill="none" d="M0 0h68v68H0z" transform="rotate(180 34 34)"/>
    <path id="Path_7758" d="M27.171 4.025a25.518 25.518 0 1 0 18.394 6.528" class="cls-2" transform="translate(5.5 7.379)"/>
    <path id="Path_7759" d="M15.445 43.2V43c0-5.667 11.333-5 11.333-11.333 0-5.667-8.5-5.667-8.5-14.167 0-8.013-5.667-8.5-14.167-8.5h-.172" class="cls-2" transform="translate(7.221 16.495)"/>
    <path id="Path_7760" d="M21.518 30.379a8.36 8.36 0 0 1-1.258-.579 8.533 8.533 0 1 1 8.616-14.73 8.771 8.771 0 0 1 .825.6" class="cls-2" transform="translate(29.397 25.494)"/>
    <path id="Path_18638" fill="#bdc9ff" stroke="#3f53d9" stroke-linecap="round" stroke-linejoin="round" stroke-width="4px" d="M21.42 26.5s9.922-8.146 9.922-15.583a9.922 9.922 0 0 0-19.845 0C11.5 18.354 21.42 26.5 21.42 26.5z" transform="translate(21.08 1.833)"/>
    <path id="Path_18639" fill="none" stroke="#4264fb" stroke-linecap="round" stroke-linejoin="round" stroke-width="4px" d="M15.461 4.35a.708.708 0 1 1-.711.708.7.7 0 0 1 .711-.708" transform="translate(27.042 7.975)"/>
</svg>
