<svg  xmlns="http://www.w3.org/2000/svg" width="24" height="24" viewBox="0 0 24 24">
  <g >
    <path  d="M0,0H24V24H0Z" fill="none"/>
    <path  d="M11.99,14.06a.99.99,0,0,1-.99-.99V9.37a.99.99,0,0,1,1.979,0v3.7A.99.99,0,0,1,11.99,14.06Z" transform="translate(0.01 0.027)" fill="#ff6575"/>
    <path  d="M11.988,15.2a1.158,1.158,0,1,0,.822.343,1.168,1.168,0,0,0-.822-.343h0" transform="translate(0.012 0.017)" fill="#ff6575"/>
    <path  d="M4.343,22.041A3.355,3.355,0,0,1,1,18.734a3.47,3.47,0,0,1,.44-1.7L9.108,3.643a3.351,3.351,0,0,1,5.805,0L22.58,17.031a3.37,3.37,0,0,1,.32,2.545,3.334,3.334,0,0,1-3.223,2.465ZM12.01,4a1.34,1.34,0,0,0-.35,0,1.3,1.3,0,0,0-.811.621L3.182,18.033a1.284,1.284,0,0,0-.18.7,1.344,1.344,0,0,0,.39.952,1.361,1.361,0,0,0,.951.391H19.678a1.28,1.28,0,0,0,.661-.18,1.334,1.334,0,0,0,.5-1.824L13.171,4.635h0a1.312,1.312,0,0,0-.5-.491A1.28,1.28,0,0,0,12.01,4Z" transform="translate(-0.01 -0.02)" fill="#ff6575"/>
  </g>
</svg>
