<svg id="Blackboard" xmlns="http://www.w3.org/2000/svg" width="24" height="24" viewBox="0 0 24 24">
  <g id="Group_868" data-name="Group 868">
            <path id="Path_10356" data-name="Path 10356" d="M20,17H4a1,1,0,0,1-1-1V15a1,1,0,0,1,1-1H20a1,1,0,0,1,1,1v1A1,1,0,0,1,20,17Z" fill="none" stroke="currentColor" stroke-linecap="round" stroke-linejoin="round" stroke-width="1.5"/>
            <path id="Path_10357" data-name="Path 10357" d="M5,4A1,1,0,0,0,4,5v9H20V5a1,1,0,0,0-1-1" fill="none" stroke="currentColor" stroke-linecap="round" stroke-linejoin="round" stroke-width="1.5"/>
            <path id="Path_10358" data-name="Path 10358" d="M16,21l-1-4" fill="none" stroke="currentColor" stroke-linecap="round" stroke-linejoin="round" stroke-width="1.5"/>
            <path id="Path_10359" data-name="Path 10359" d="M8,21l1-4" fill="none" stroke="currentColor" stroke-linecap="round" stroke-linejoin="round" stroke-width="1.5"/>
            <path id="Path_10360" data-name="Path 10360" d="M16,5.5H8a1,1,0,0,1-1-1v-1a1,1,0,0,1,1-1h8a1,1,0,0,1,1,1v1A1,1,0,0,1,16,5.5Z" fill="none" stroke="currentColor" stroke-linecap="round" stroke-linejoin="round" stroke-width="1.5"/>
            <path id="Path_10361" data-name="Path 10361" d="M19,4H17" fill="none" stroke="currentColor" stroke-linecap="round" stroke-linejoin="round" stroke-width="1.5"/>
            <path id="Path_10362" data-name="Path 10362" d="M7,4H5" fill="none" stroke="currentColor" stroke-linecap="round" stroke-linejoin="round" stroke-width="1.5"/>
    </g>
</svg>
