<svg id="Flag" xmlns="http://www.w3.org/2000/svg" width="24" height="24" viewBox="0 0 24 24">
  <path id="Path_19537" data-name="Path 19537" d="M0,0H24V24H0Z" fill="none"/>
  <path id="Path_19538" data-name="Path 19538" d="M5,21V3.93" fill="none" stroke="#0c0b31" stroke-linecap="round" stroke-linejoin="round" stroke-width="1.5"/>
  <path id="Path_19539" data-name="Path 19539" d="M19,14.02V4" fill="none" stroke="#0c0b31" stroke-linecap="round" stroke-linejoin="round" stroke-width="1.5"/>
  <path id="Path_19540" data-name="Path 19540" d="M5,14s.875-.727,3.5-.727S12.875,15,15.5,15s3.5-.977,3.5-.977" fill="none" stroke="#0c0b31" stroke-linecap="round" stroke-linejoin="round" stroke-width="1.5"/>
  <path id="Path_19541" data-name="Path 19541" d="M5,3.932S5.875,3,8.5,3s4.375,1.727,7,1.727S19,4,19,4" fill="none" stroke="#0c0b31" stroke-linecap="round" stroke-linejoin="round" stroke-width="1.5"/>
  <g id="Path_19543" data-name="Path 19543" transform="translate(5 4)" fill="#0c0b31">
    <path d="M 9.931148529052734 10.71582412719727 C 9.203998565673828 10.71582412719727 8.345138549804688 10.40636444091797 7.350668430328369 10.04805469512939 C 6.316428184509277 9.67540454864502 5.144198417663574 9.253034591674805 3.845428466796875 9.09404468536377 C 3.416858434677124 9.041574478149414 2.993388414382935 9.01496410369873 2.586778402328491 9.01496410369873 C 1.675808668136597 9.01496410369873 0.975738525390625 9.147887229919434 0.4999983608722687 9.282713890075684 L 0.4999983608722687 4.257812634023139e-06 L 0.4999983608722687 -0.03106574155390263 L 0.4991839826107025 -0.03758706524968147 C 0.5031700730323792 -0.07169730961322784 0.5344091057777405 -0.2216173857450485 0.7782883644104004 -0.3902457356452942 C 1.102458357810974 -0.6143957376480103 1.80789840221405 -0.8815957307815552 3.327638387680054 -0.8815957307815552 C 3.976568460464478 -0.8815957307815552 5.021528244018555 -0.539415717124939 6.127838134765625 -0.1771557480096817 C 7.213138580322266 0.1782242506742477 8.443238258361816 0.5810242295265198 9.556228637695313 0.7389342784881592 C 10.10194873809814 0.8161242604255676 10.6618480682373 0.8552442789077759 11.22057819366455 0.8552442789077759 C 12.18982315063477 0.8552442789077759 12.98388671875 0.7392711043357849 13.49999809265137 0.6356202960014343 L 13.49999809265137 9.837956428527832 C 13.29348468780518 10.0582914352417 12.46449279785156 10.71582412719727 9.931148529052734 10.71582412719727 Z" stroke="none"/>
    <path d="M 3.327638626098633 -0.3815956115722656 C 1.616657257080078 -0.3815956115722656 1.110305786132813 -0.02982330322265625 0.9999980926513672 0.07187080383300781 L 0.9999980926513672 8.653374671936035 C 1.436357498168945 8.572988510131836 1.966217994689941 8.51496410369873 2.58677864074707 8.51496410369873 C 3.013638496398926 8.51496410369873 3.457548141479492 8.542814254760742 3.906188011169434 8.597743988037109 C 5.260778427124023 8.763574600219727 6.461118221282959 9.196074485778809 7.520158290863037 9.577653884887695 C 8.470548629760742 9.920083999633789 9.291328430175781 10.21582412719727 9.931148529052734 10.21582412719727 C 11.87862110137939 10.21582412719727 12.70277404785156 9.817385673522949 12.99999809265137 9.60968017578125 L 12.99999809265137 1.227982521057129 C 12.51175117492676 1.298696517944336 11.90682411193848 1.355244636535645 11.22057819366455 1.355244636535645 C 10.63855838775635 1.355244636535645 10.05510807037354 1.314464569091797 9.485998153686523 1.233974456787109 C 8.329448699951172 1.069893836975098 7.077138423919678 0.6598138809204102 5.972248554229736 0.2980146408081055 C 4.951888084411621 -0.03609561920166016 3.896788597106934 -0.3815956115722656 3.327638626098633 -0.3815956115722656 M 3.327638626098633 -1.381595611572266 C 4.74163818359375 -1.381595611572266 7.419838428497314 -0.06917572021484375 9.626468658447266 0.2438945770263672 C 10.19439506530762 0.32421875 10.73096752166748 0.3552398681640625 11.22057914733887 0.3552398681640625 C 12.87812995910645 0.3552398681640625 13.99999809265137 3.814697265625e-06 13.99999809265137 3.814697265625e-06 L 13.99999809265137 10.00000381469727 C 13.99999809265137 10.00000381469727 13.43114852905273 11.21582412719727 9.931148529052734 11.21582412719727 C 8.300148010253906 11.21582412719727 6.267458438873291 9.894284248352051 3.78466796875 9.590333938598633 C 3.348846435546875 9.536977767944336 2.949173927307129 9.51496696472168 2.586782455444336 9.51496696472168 C 0.8846988677978516 9.51496696472168 -1.9073486328125e-06 10.00000381469727 -1.9073486328125e-06 10.00000381469727 L -1.9073486328125e-06 3.814697265625e-06 C -1.9073486328125e-06 3.814697265625e-06 -0.1723613739013672 -1.381595611572266 3.327638626098633 -1.381595611572266 Z" stroke="none" fill="#0c0b31"/>
  </g>
</svg>
